<?xml version="1.0" encoding="utf-8"?>
<!-- Generator: Adobe Illustrator 20.1.0, SVG Export Plug-In . SVG Version: 6.00 Build 0)  -->
<svg version="1.1" id="Слой_1" xmlns="http://www.w3.org/2000/svg" xmlns:xlink="http://www.w3.org/1999/xlink" x="0px" y="0px"
	 viewBox="0 0 41.3 70.1" style="enable-background:new 0 0 41.3 70.1;" xml:space="preserve">
<style type="text/css">
	.st0{clip-path:url(#SVGID_2_);fill:#FFFFFF;}
	.st1{clip-path:url(#SVGID_2_);fill:#BADFF1;}
	.st2{clip-path:url(#SVGID_2_);fill:#9BD1F0;}
</style>
<g>
	<defs>
		<rect id="SVGID_1_" y="0" width="41.3" height="70.1"/>
	</defs>
	<clipPath id="SVGID_2_">
		<use xlink:href="#SVGID_1_"  style="overflow:visible;"/>
	</clipPath>
	<path class="st0" d="M10.9,29c1.4-0.4,2.5-1.4,3.2-2.6c0.7-1.3,0.8-2.7,0.4-4.1c-0.4-1.4-1.4-2.5-2.7-3.1c-0.6-0.3-0.8-0.9-0.5-1.5
		c0.2-0.4,0.5-0.5,0.9-0.6c0.2,0,0.4,0,0.6,0.1c1.8,0.9,3.1,2.5,3.7,4.4c0.6,1.9,0.4,4-0.5,5.8c-0.9,1.8-2.5,3.1-4.4,3.7
		c-0.6,0.2-1.2-0.2-1.4-0.7C10,29.8,10.4,29.2,10.9,29"/>
	<path class="st1" d="M36.1,16.3c-1.2,2.9-3.6,5-6.4,6c-1,0.4-2,0.6-3.1,0.6c-0.8,0-1.5,0.1-2.3,0c-4.1-0.4-7.5-3-9.2-6.6
		c-0.5-1-0.8-2-0.9-3.1c0,0,0-0.1,0-0.1c-0.9-6.1,3.7-12.2,9.8-13C32.7-1,39.8,7.5,36.1,16.3"/>
	<path class="st2" d="M16.2,50.6v15c0,2.5-1.9,4.5-4.1,4.5s-4.1-2-4.1-4.5v-15c0-2.5,1.9-4.5,4.1-4.5S16.2,48.1,16.2,50.6"/>
	<path class="st2" d="M34.2,42.2l-9.9-10c-1.5-1.7-1.5-4.3,0.2-5.8c1.7-1.5,4.3-1.5,5.8,0.2l9.9,10c1.5,1.7,1.5,4.3-0.2,5.8
		C38.4,43.9,35.8,43.9,34.2,42.2"/>
	<path class="st2" d="M28.2,25.5l-8.7,21.2c-1.7,4.2-5.8,6.7-10,6.7c-1.4,0-2.7-0.2-4-0.8C1,50.8-1.2,45.6,0.6,41.2l6.9-16.9
		c1.2-2.9,3.7-4.8,6.6-5.3c1.6,3.6,5.1,6.1,9.2,6.6c0.8,0.1,1.5,0.1,2.3,0C26.7,25.5,27.2,25.8,28.2,25.5"/>
	<path class="st0" d="M27.9,17.5c1.4-0.1,2.8-0.7,3.7-1.8c1-1.1,1.4-2.4,1.3-3.9c-0.1-1.4-0.8-2.7-1.9-3.7c-0.5-0.4-0.5-1.1-0.1-1.6
		c0.3-0.3,0.6-0.4,1-0.3c0.2,0,0.4,0.1,0.6,0.3c1.5,1.3,2.5,3.2,2.6,5.2c0.1,2-0.5,4-1.9,5.5c-1.3,1.5-3.2,2.4-5.2,2.6
		c-0.6,0-1.1-0.4-1.2-1C26.9,18.1,27.4,17.6,27.9,17.5"/>
</g>
</svg>
