<?xml version="1.0" encoding="utf-8"?>
<!-- Generator: Adobe Illustrator 20.1.0, SVG Export Plug-In . SVG Version: 6.00 Build 0)  -->
<svg version="1.1" id="Слой_1" xmlns="http://www.w3.org/2000/svg" xmlns:xlink="http://www.w3.org/1999/xlink" x="0px" y="0px"
	 viewBox="0 0 37 42.8" style="enable-background:new 0 0 37 42.8;" xml:space="preserve">
<style type="text/css">
	.st0{clip-path:url(#SVGID_2_);fill:#72C0E6;}
	.st1{clip-path:url(#SVGID_2_);fill:#9BD1F0;}
	.st2{clip-path:url(#SVGID_2_);fill:#BADFF1;}
</style>
<g>
	<defs>
		<rect id="SVGID_1_" y="0" width="37" height="42.8"/>
	</defs>
	<clipPath id="SVGID_2_">
		<use xlink:href="#SVGID_1_"  style="overflow:visible;"/>
	</clipPath>
	<path class="st0" d="M33.5,12.9c-0.7,1.1-1.8,1.9-3,2.4c-1-0.9-2.1-1.8-3.2-2.6c1.3-0.2,2.4-0.8,3-1.8c0.6-0.9,0.8-2,0.5-3.1
		c-0.3-1.4-1.3-2.7-2.6-3.6c-2.5-1.6-5.6-1.2-7,0.9c-0.6,0.9-0.8,2-0.5,3.1c0,0.1,0.1,0.3,0.1,0.4c-1.3-0.7-2.5-1.3-3.7-1.9
		c-0.1-1.4,0.2-2.6,1-3.7C19.3,1,21.5,0,24,0c1.9,0,3.9,0.6,5.7,1.8c2.4,1.5,4,3.8,4.6,6.2C34.7,9.8,34.4,11.5,33.5,12.9"/>
	<path class="st1" d="M36.5,30.1c-2,3-9,2.3-16.7-1.4c0.3-0.5,0.6-1,1-1.4l0.4-0.5c1-1.2,1.5-2.8,1.3-4.4c-0.2-1.6-1.2-3-2.5-3.9
		l-1.5-1c-1.3-0.8-3-1.1-4.6-0.7c-1.5,0.4-2.8,1.5-3.5,3l-0.2,0.4c-0.3,0.6-0.6,1.1-1,1.6c-4.6-3.9-7.8-8.1-8.5-11.3
		C0.4,9.3,0.5,8.2,1.1,7.4c0.8-1.3,2.6-1.9,4.9-1.9c4.4,0,11,2.3,17.4,6.3c7.2,4.6,12.7,10.7,13.6,15.1C37.2,28.2,37,29.3,36.5,30.1
		"/>
	<path class="st2" d="M20.9,22.6c-0.2-1.2-0.8-2.2-1.8-2.8l-1.5-1c-0.7-0.4-1.4-0.7-2.2-0.7c-0.4,0-0.7,0-1.1,0.2
		c-1.1,0.3-2,1.1-2.5,2.2L11.5,21c-1.1,2.3-3.1,4.1-5.7,5C3.7,26.7,2,28.2,1,30.2c-1.9,3.6-1,8.1,2.2,10.6c2,1.6,4.4,2.3,6.9,1.9
		c2.4-0.4,4.6-1.8,5.9-3.9c1.1-1.7,1.5-3.5,1.4-5.5c-0.3-2.6,0.5-5.1,2.1-7.1l0.4-0.5C20.7,24.9,21,23.8,20.9,22.6 M7.8,29.5
		c-1.2,0.3-2.3,1-3,2c-0.7,1-0.9,2.3-0.7,3.5c0.3,1.2,1,2.3,2.1,3c0.5,0.3,0.6,0.9,0.3,1.3c-0.2,0.3-0.5,0.4-0.8,0.4
		c-0.2,0-0.3,0-0.5-0.2c-1.5-1-2.5-2.4-2.9-4.2c-0.4-1.7,0-3.5,0.9-5c1-1.5,2.5-2.5,4.2-2.9c0.5-0.1,1,0.2,1.2,0.7
		C8.6,28.9,8.3,29.4,7.8,29.5"/>
</g>
</svg>
