<?xml version="1.0" encoding="utf-8"?>
<!-- Generator: Adobe Illustrator 20.1.0, SVG Export Plug-In . SVG Version: 6.00 Build 0)  -->
<svg version="1.1" id="Layer_1" xmlns="http://www.w3.org/2000/svg" xmlns:xlink="http://www.w3.org/1999/xlink" x="0px" y="0px"
	 viewBox="0 0 38.5 67.5" style="enable-background:new 0 0 38.5 67.5;" xml:space="preserve">
<style type="text/css">
	.st0{fill:#9BD1F0;}
	.st1{fill:#BADFF1;}
	.st2{fill:#FFFFFF;}
</style>
<g>
	<path class="st0" d="M26.2,24.7c-0.7,0.5-1.5,0.9-2.3,1.2c-1,0.3-2,0.6-3.1,0.6c-0.8,0-1.5,0.1-2.3,0c-2.3-0.2-4.3-1.2-6-2.5
		c-3.3,2.1-5.4,5.7-5.4,9.9v13.4c0,6.5,5.3,11.8,11.8,11.8s11.8-5.3,11.8-11.8V33.8C30.6,30.1,28.9,26.8,26.2,24.7z"/>
	<path class="st1" d="M18.2,0.1C12,0.9,7.4,7,8.4,13.1c0,0,0,0.1,0,0.1c0.2,1.1,0.5,2.1,1,3.1c0.7,1.6,1.8,3,3.2,4.1
		c1.7,1.4,3.7,2.3,6,2.5c0.8,0.1,1.5,0.1,2.3,0c1.1-0.1,2.1-0.3,3.1-0.6c0.8-0.3,1.6-0.7,2.3-1.2c1.8-1.2,3.2-2.8,4.1-4.8
		C33.9,7.5,26.8-1,18.2,0.1z"/>
</g>
<g>
	<path class="st0" d="M17.9,48v15c0,2.5-1.9,4.5-4.1,4.5s-4.1-2-4.1-4.5V48c0-2.5,1.9-4.5,4.1-4.5S17.9,45.5,17.9,48"/>
	<path class="st0" d="M14.1,29.5L7.9,43.2c-1,2.3-3.5,3.3-5.6,2.4c-2.1-0.9-2.9-3.5-1.9-5.8l6.1-13.7c1-2.3,3.5-3.3,5.6-2.4
		S15.1,27.3,14.1,29.5"/>
	<path class="st0" d="M24.4,30.4l6.1,13.7c1,2.3,3.5,3.3,5.6,2.4c2.1-0.9,2.9-3.5,1.9-5.8L31.9,27c-1-2.3-3.5-3.3-5.6-2.4
		S23.4,28.2,24.4,30.4"/>
	<path class="st0" d="M28,48v15c0,2.5-1.9,4.5-4.1,4.5s-4.1-2-4.1-4.5V48c0-2.5,1.9-4.5,4.1-4.5S28,45.5,28,48"/>
	<path class="st2" d="M22.1,17.5c1.4-0.1,2.8-0.7,3.7-1.8c1-1.1,1.4-2.4,1.3-3.9c-0.1-1.4-0.8-2.7-1.9-3.7c-0.5-0.4-0.5-1.1-0.1-1.6
		c0.3-0.3,0.6-0.4,1-0.3c0.2,0,0.4,0.1,0.6,0.3c1.5,1.3,2.5,3.2,2.6,5.2c0.1,2-0.5,4-1.9,5.5c-1.3,1.5-3.2,2.4-5.2,2.6
		c-0.6,0-1.1-0.4-1.2-1C21,18.1,21.5,17.6,22.1,17.5"/>
</g>
</svg>
