<?xml version="1.0" encoding="utf-8"?>
<!-- Generator: Adobe Illustrator 20.1.0, SVG Export Plug-In . SVG Version: 6.00 Build 0)  -->
<svg version="1.1" id="Layer_3" xmlns="http://www.w3.org/2000/svg" xmlns:xlink="http://www.w3.org/1999/xlink" x="0px" y="0px"
	 viewBox="0 0 54.6 42.5" style="enable-background:new 0 0 54.6 42.5;" xml:space="preserve">
<style type="text/css">
	.st0{fill:#BADFF1;}
	.st1{fill:#9BD2F0;}
	.st2{fill:#FFFFFF;}
</style>
<path class="st0" d="M53.6,16.3c-1.6,3.8-5.3,6.4-9.5,6.6c-0.8,0-1.5,0.1-2.3,0c-5.2-0.6-9.3-4.6-10.1-9.7c0,0,0-0.1,0-0.1
	c-0.9-6.1,3.7-12.3,9.9-13C50.2-1,57.3,7.4,53.6,16.3z"/>
<path class="st1" d="M40.2,24.4v1.1c0,4.8-3.9,8.8-8.8,8.8H13.2c-4.8,0-8.8-3.9-8.8-8.8v0c0-5.9,4.9-10.8,10.8-10.8h14.8
	C30.9,19.9,35.1,23.9,40.2,24.4z"/>
<path class="st1" d="M17.9,42.5H4.1c-2.3,0-4.1-1.9-4.1-4.1v0c0-2.3,1.9-4.1,4.1-4.1h13.8c2.3,0,4.1,1.9,4.1,4.1v0
	C22,40.6,20.1,42.5,17.9,42.5z"/>
<path class="st1" d="M45.9,41.2l-9.9-10c-1.5-1.7-1.5-4.3,0.2-5.8l0,0c1.7-1.5,4.3-1.5,5.8,0.2l9.9,10c1.5,1.7,1.5,4.3-0.2,5.8l0,0
	C50,42.9,47.4,42.9,45.9,41.2z"/>
<path class="st2" d="M45.8,5.9c-1.1-0.9-2.5-1.4-3.9-1.4c-1.4,0.1-2.7,0.7-3.7,1.8c-0.9,1.1-1.4,2.5-1.3,3.9c0,0.6-0.4,1.1-1,1.2
	c-0.4,0-0.7-0.2-0.9-0.5c-0.1-0.2-0.2-0.3-0.2-0.6c-0.1-2,0.5-4,1.9-5.5c1.3-1.5,3.2-2.4,5.2-2.6s4,0.6,5.5,1.9
	c0.4,0.4,0.5,1.1,0.1,1.6C47,6.3,46.3,6.3,45.8,5.9z"/>
</svg>
