<?xml version="1.0" encoding="utf-8"?>
<!-- Generator: Adobe Illustrator 20.1.0, SVG Export Plug-In . SVG Version: 6.00 Build 0)  -->
<svg version="1.1" id="Layer_3" xmlns="http://www.w3.org/2000/svg" xmlns:xlink="http://www.w3.org/1999/xlink" x="0px" y="0px"
	 viewBox="0 0 40 51" style="enable-background:new 0 0 40 51;" xml:space="preserve">
<style type="text/css">
	.st0{fill:#9BD2F0;}
	.st1{fill:#BADFF1;}
	.st2{fill:#FFFFFF;}
</style>
<path class="st0" d="M36,42.7l-8.7-5.6c-2-1.1-4.5-0.5-5.6,1.5l0,0c-1.1,2-0.5,4.5,1.5,5.6l8.7,5.6c2,1.1,4.5,0.5,5.6-1.5l0,0
	C38.7,46.4,38,43.9,36,42.7z"/>
<path class="st0" d="M3,43.3l8.7-5.6c2-1.1,4.5-0.5,5.6,1.5l0,0c1.1,2,0.5,4.5-1.5,5.6l-8.7,5.6c-2,1.1-4.5,0.5-5.6-1.5l0,0
	C0.4,47,1,44.5,3,43.3z"/>
<g>
	<path class="st0" d="M20.9,21.9c-0.8,0-1.5,0.1-2.3,0c-2.2-0.2-4.3-1.1-6-2.5c-1-0.8-1.1,1.1-1.8,0.1c0,0.3-0.6-0.6-0.6-0.2
		l-0.1,15.1c0,5.3,4.4,9.7,9.7,9.7s9.7-4.4,9.7-9.7v-15c0-0.3-0.1,0.8-0.1,0.6c-0.7,1.1-1.6-1-2.6-0.2C25.1,21,23.1,21.7,20.9,21.9z
		"/>
	<path class="st1" d="M18.6,0.1c-5.1,0.7-8.9,5.7-8.2,10.8c0,0,0,0,0,0.1c0.2,1.4,0.7,2.6,1.4,3.7c1.5,2.3,4,4,7,4.3
		c0.6,0.1,1.3,0.1,1.9,0c2.9-0.2,5.6-1.7,7.1-4.2c0.3-0.4,0.5-0.9,0.7-1.3C31.6,6.2,25.8-0.8,18.6,0.1z"/>
</g>
<path class="st2" d="M22.1,4.9c-0.9-0.8-2.1-1.2-3.2-1.1c-1.2,0.1-2.3,0.6-3.1,1.5c-0.8,0.9-1.2,2-1.1,3.2c0,0.5-0.3,0.9-0.8,1
	c-0.3,0-0.6-0.1-0.8-0.4C13,9,13,8.9,12.9,8.7c-0.1-1.7,0.4-3.3,1.6-4.6c1.1-1.3,2.6-2,4.3-2.1c1.7-0.1,3.3,0.5,4.6,1.6
	c0.4,0.3,0.4,0.9,0.1,1.3C23.1,5.2,22.5,5.2,22.1,4.9z"/>
<path class="st0" d="M1.4,25.8l6.4-6.2c1.7-1.5,4.3-1.4,5.8,0.3l0,0c1.5,1.7,1.4,4.3-0.3,5.8l-6.4,6.2c-1.7,1.5-4.3,1.4-5.8-0.3l0,0
	C-0.5,29.9-0.3,27.3,1.4,25.8z"/>
<path class="st0" d="M38.7,25.9l-6.4-6.2c-1.7-1.5-4.3-1.4-5.8,0.3l0,0c-1.5,1.7-1.4,4.3,0.3,5.8l6.4,6.2c1.7,1.5,4.3,1.4,5.8-0.3
	l0,0C40.5,30.1,40.3,27.4,38.7,25.9z"/>
</svg>
