<?xml version="1.0" encoding="utf-8"?>
<!-- Generator: Adobe Illustrator 20.1.0, SVG Export Plug-In . SVG Version: 6.00 Build 0)  -->
<svg version="1.1" id="Layer_1" xmlns="http://www.w3.org/2000/svg" xmlns:xlink="http://www.w3.org/1999/xlink" x="0px" y="0px"
	 viewBox="280.5 478.9 32.8 12.9" style="enable-background:new 280.5 478.9 32.8 12.9;" xml:space="preserve">
<style type="text/css">
	.st0{fill:#7ED2F1;}
	.st1{fill:#AADFF2;}
	.st2{fill:none;stroke:#FFFFFF;stroke-linecap:round;stroke-linejoin:round;stroke-miterlimit:10;}
</style>
<g>
	<path class="st0" d="M293.6,489.2c-0.5,0-0.9-0.2-1.2-0.5l-10.2-9.3c-0.1-0.1-0.2-0.3-0.3-0.4c-1.3,0.4-1.8,2.1-0.7,3.1l10.2,9.3
		c0.3,0.3,0.8,0.5,1.2,0.5h19c1.5,0,2.3-1.6,1.5-2.8c-0.2,0-0.3,0.1-0.5,0.1H293.6z"/>
	<path class="st1" d="M302.5,479.4c-0.3-0.3-0.8-0.5-1.2-0.5h-19c-0.2,0-0.3,0-0.5,0.1c0.1,0.1,0.2,0.3,0.3,0.4l10.2,9.3
		c0.3,0.3,0.8,0.5,1.2,0.5h19c0.2,0,0.3,0,0.5-0.1c-0.1-0.1-0.2-0.3-0.3-0.4L302.5,479.4z"/>
</g>
<path class="st2" d="M305.1,484l3,2.7c0.3,0.2,0.1,0.7-0.3,0.7h-4.6"/>
</svg>
