<?xml version="1.0" encoding="utf-8"?>
<!-- Generator: Adobe Illustrator 20.1.0, SVG Export Plug-In . SVG Version: 6.00 Build 0)  -->
<svg version="1.1" id="Слой_1" xmlns="http://www.w3.org/2000/svg" xmlns:xlink="http://www.w3.org/1999/xlink" x="0px" y="0px"
	 viewBox="0 0 486.4 479.9" style="enable-background:new 0 0 486.4 479.9;" xml:space="preserve">
<style type="text/css">
	.st0{clip-path:url(#SVGID_2_);}
</style>
<g>
	<defs>
		<rect id="SVGID_1_" width="486.4" height="479.9"/>
	</defs>
	<clipPath id="SVGID_2_">
		<use xlink:href="#SVGID_1_"  style="overflow:visible;"/>
	</clipPath>
	<path class="st0" d="M447.7,223.9c0-80.3-45.8-150-112.6-184.6c-1.3-11.8-9-22.5-20.9-26.7C266.3-4.3,212.9-4.2,165,12.7
		c-11.9,4.2-19.5,14.9-20.9,26.7C77.4,74.1,31.7,143.7,31.7,223.9H9.2c0,35.3,3.2,64,38.5,64c0,106,86,192,192,192s192-86,192-192
		c35.3,0,42.8-28.7,42.8-64H447.7z M156.9,68.7c5.4,3.9,11.9,6.2,18.8,6.2c3.5,0,7.1-0.6,10.7-1.8C220.4,60.9,258.8,61,292.9,73
		c10.1,3.6,20.6,1.2,28.8-4.7c55.8,29.5,94,88.2,94,155.6h-352C63.7,156.8,101.5,98.4,156.9,68.7 M191.7,399.9c0,8.8-7.2,16-16,16
		s-16-7.2-16-16v-112h32V399.9z M255.7,399.9c0,8.8-7.2,16-16,16c-8.8,0-16-7.2-16-16v-112h32V399.9z M319.7,399.9
		c0,8.8-7.2,16-16,16c-8.8,0-16-7.2-16-16v-112h32V399.9z"/>
	<path class="st0" d="M474.5,288.2h-47.2c-6.5,0-11.9-5.3-11.9-11.9v-40.6c0-6.6,5.3-11.9,11.9-11.9h47.2c6.5,0,11.9,5.3,11.9,11.9
		v40.6C486.4,282.9,481.1,288.2,474.5,288.2"/>
	<path class="st0" d="M59,288.2H11.9c-6.5,0-11.9-5.3-11.9-11.9v-40.6c0-6.6,5.3-11.9,11.9-11.9H59c6.5,0,11.9,5.3,11.9,11.9v40.6
		C70.9,282.9,65.6,288.2,59,288.2"/>
</g>
</svg>
