<?xml version="1.0" encoding="utf-8"?>
<!-- Generator: Adobe Illustrator 20.1.0, SVG Export Plug-In . SVG Version: 6.00 Build 0)  -->
<svg version="1.1" id="Слой_1" xmlns="http://www.w3.org/2000/svg" xmlns:xlink="http://www.w3.org/1999/xlink" x="0px" y="0px"
	 viewBox="0 0 95 95.3" style="enable-background:new 0 0 95 95.3;" xml:space="preserve">
<style type="text/css">
	.st0{clip-path:url(#SVGID_2_);fill:#ADE0F4;}
	.st1{clip-path:url(#SVGID_2_);fill:#82D3F3;}
</style>
<g>
	<defs>
		<rect id="SVGID_1_" y="0" width="95" height="95.3"/>
	</defs>
	<clipPath id="SVGID_2_">
		<use xlink:href="#SVGID_1_"  style="overflow:visible;"/>
	</clipPath>
	<path class="st0" d="M86.1,49.8c0.2,9.8-3.1,18.7-8.9,25.7v10.7c0,4.6-3.4,8.7-8,9.2c-5,0.5-9.1-3.1-9.7-7.8
		c-3.8,1.2-7.8,1.9-12,1.9c-4.2,0-8.2-0.7-12-1.9c-0.6,4.7-4.7,8.3-9.7,7.8c-4.6-0.5-8-4.5-8-9.2V75.5c-5.6-6.7-8.9-15.3-8.9-24.7
		c0-22.2,18.8-40.1,41.4-38.5C69.9,13.7,85.6,30.1,86.1,49.8 M80,54.3c2.2-20.8-15.2-38.2-36-36C28.8,19.9,16.6,32.1,15,47.3
		c-2.2,20.8,15.2,38.2,36,36C66.2,81.7,78.4,69.5,80,54.3"/>
	<path class="st1" d="M46,24.1L46,24.1c-1.6,0-3,1.3-3,3v23.8v0c0,0.8,0.4,1.5,1.1,2l16.5,12.5c1.7,1.3,2.6,1.9,4.1,1.1
		c1.4-0.8,1.9-2.6,1.1-4.1L50.1,50.8c-0.7-0.5-1.1-1.3-1.1-2.2V27.1C49,25.4,47.6,24.1,46,24.1"/>
	<path class="st1" d="M94.9,18.4c0.7,6.5-1.6,12.4-5.6,16.7C84.2,21.5,72.7,11,58.5,7.4c4.4-5.1,11.1-8.2,18.7-7.2
		C86.4,1.5,93.8,9.1,94.9,18.4 M36.5,7.4c-4.4-5.1-11.1-8.2-18.7-7.2C9,1.4,1.7,8.4,0.3,17.3c-1.1,6.9,1.2,13.3,5.5,17.8
		C10.8,21.5,22.3,11,36.5,7.4"/>
</g>
</svg>
