<?xml version="1.0" encoding="utf-8"?>
<!-- Generator: Adobe Illustrator 20.1.0, SVG Export Plug-In . SVG Version: 6.00 Build 0)  -->
<svg version="1.1" id="Слой_1" xmlns="http://www.w3.org/2000/svg" xmlns:xlink="http://www.w3.org/1999/xlink" x="0px" y="0px"
	 viewBox="0 0 112.2 91.4" style="enable-background:new 0 0 112.2 91.4;" xml:space="preserve">
<style type="text/css">
	.st0{clip-path:url(#SVGID_2_);fill:#2BC0E8;}
	.st1{clip-path:url(#SVGID_2_);fill:#7ED2F1;}
	.st2{clip-path:url(#SVGID_2_);fill:none;stroke:#7FD2F0;stroke-width:2;stroke-miterlimit:10;}
</style>
<g>
	<defs>
		<rect id="SVGID_1_" y="0" width="112.2" height="91.4"/>
	</defs>
	<clipPath id="SVGID_2_">
		<use xlink:href="#SVGID_1_"  style="overflow:visible;"/>
	</clipPath>
	<path class="st0" d="M71.8,58.9h-1.1h-0.4H41.8h-0.6h-0.9c-0.9,0-1.5,0.6-1.5,1.5c0.9,8.9,8.1,15.7,17.2,15.7s16.4-7,17.2-15.7
		C73.3,59.5,72.7,58.9,71.8,58.9 M56.1,71.8c-5.7,0-10.4-3.6-12.3-8.7h24.5C66.5,68.2,61.8,71.8,56.1,71.8"/>
	<path class="st1" d="M100.3,39.1c-0.9-5.5-2.6-10.8-5.3-15.5c2.8-4.5,4.3-9.6,4.3-15.3c0-1.9-0.2-3.6-0.4-5.3
		C98.6,1.6,97.8,1,96.7,1H56.1C41.4,1,28.4,8,20.4,18.9c-4.3,5.7-7.2,12.8-8.3,20.2C5.7,39.9,1,45.2,1,51.6c0,7,5.5,12.6,12.6,12.6
		c0.6,0,1.3,0,1.9-0.2c7.2,16.2,23,26.4,40.6,26.4c17.7,0,33.4-10.2,40.6-26.4c0.6,0,1.3,0.2,1.9,0.2c7,0,12.6-5.5,12.6-12.6
		C111.2,45.2,106.5,39.9,100.3,39.1 M94.8,5.3C95,6.3,95,7.2,95,8.2c0,12.3-8.9,22.6-19.8,22.6c-6.4,0-12.3-3.6-16.2-9.6L58.9,21
		C54.6,13.8,47.2,9.3,39.3,9.3H38C43.5,6.5,49.5,5,56.1,5L94.8,5.3z M98.6,59.9c-0.9,0-1.5-0.2-2.6-0.4l-1.9-0.6l-0.6,1.9
		c-6.2,15.3-20.8,25.3-37.4,25.3s-31.3-10-37.4-25.3L18,58.9l-1.9,0.6c-0.9,0.2-1.7,0.4-2.6,0.4c-4.5,0-8.3-3.6-8.3-8.3
		c0-4.7,3.8-8.3,8.1-8.3h2.3l0.2-1.9c0.9-7.4,3.6-14.3,7.9-20c3.6-4.9,9.6-7.9,15.5-7.9c6.6,0,12.6,3.6,16.4,9.8
		c0,0.2,0.2,0.2,0.2,0.4c4.5,7,11.7,11.3,19.6,11.3c6.6,0,12.3-3,16.8-7.7c2.3,4.5,3.6,9.1,4.3,14l0.2,1.9h1.9h0.2
		c4.7,0,8.3,3.8,8.3,8.3C107.2,56.1,103.3,59.9,98.6,59.9"/>
	<path class="st2" d="M100.3,39.1c-0.9-5.5-2.6-10.8-5.3-15.5c2.8-4.5,4.3-9.6,4.3-15.3c0-1.9-0.2-3.6-0.4-5.3
		C98.6,1.6,97.8,1,96.7,1H56.1C41.4,1,28.4,8,20.4,18.9c-4.3,5.7-7.2,12.8-8.3,20.2C5.7,39.9,1,45.2,1,51.6c0,7,5.5,12.6,12.6,12.6
		c0.6,0,1.3,0,1.9-0.2c7.2,16.2,23,26.4,40.6,26.4c17.7,0,33.4-10.2,40.6-26.4c0.6,0,1.3,0.2,1.9,0.2c7,0,12.6-5.5,12.6-12.6
		C111.2,45.2,106.5,39.9,100.3,39.1z M94.8,5.3C95,6.3,95,7.2,95,8.2c0,12.3-8.9,22.6-19.8,22.6c-6.4,0-12.3-3.6-16.2-9.6L58.9,21
		C54.6,13.8,47.2,9.3,39.3,9.3H38C43.5,6.5,49.5,5,56.1,5L94.8,5.3z M98.6,59.9c-0.9,0-1.5-0.2-2.6-0.4l-1.9-0.6l-0.6,1.9
		c-6.2,15.3-20.8,25.3-37.4,25.3s-31.3-10-37.4-25.3L18,58.9l-1.9,0.6c-0.9,0.2-1.7,0.4-2.6,0.4c-4.5,0-8.3-3.6-8.3-8.3
		c0-4.7,3.8-8.3,8.1-8.3h2.3l0.2-1.9c0.9-7.4,3.6-14.3,7.9-20c3.6-4.9,9.6-7.9,15.5-7.9c6.6,0,12.6,3.6,16.4,9.8
		c0,0.2,0.2,0.2,0.2,0.4c4.5,7,11.7,11.3,19.6,11.3c6.6,0,12.3-3,16.8-7.7c2.3,4.5,3.6,9.1,4.3,14l0.2,1.9h1.9h0.2
		c4.7,0,8.3,3.8,8.3,8.3C107.2,56.1,103.3,59.9,98.6,59.9z"/>
</g>
</svg>
