<?xml version="1.0" encoding="utf-8"?>
<!-- Generator: Adobe Illustrator 20.1.0, SVG Export Plug-In . SVG Version: 6.00 Build 0)  -->
<svg version="1.1" id="Слой_1" xmlns="http://www.w3.org/2000/svg" xmlns:xlink="http://www.w3.org/1999/xlink" x="0px" y="0px"
	 viewBox="0 0 97.5 64" style="enable-background:new 0 0 97.5 64;" xml:space="preserve">
<style type="text/css">
	.st0{clip-path:url(#SVGID_2_);fill:#7ED2F1;}
</style>
<g>
	<defs>
		<rect id="SVGID_1_" width="97.5" height="64"/>
	</defs>
	<clipPath id="SVGID_2_">
		<use xlink:href="#SVGID_1_"  style="overflow:visible;"/>
	</clipPath>
	<path class="st0" d="M9.1,0C4.1,0,0,4.1,0,9.1v45.7c0,5,4.1,9.1,9.1,9.1h79.2c5,0,9.1-4.1,9.1-9.1V9.1c0-5-4.1-9.1-9.1-9.1H9.1z
		 M9.1,6.1h79.2c1.7,0,3,1.3,3,3v45.7c0,1.7-1.3,3-3,3H9.1c-1.7,0-3-1.3-3-3V9.1C6.1,7.4,7.4,6.1,9.1,6.1 M18.1,12.1
		c-1.7,0.1-3,1.5-2.9,3.2c0,0.8,0.4,1.6,1,2.1l15,14.1l-15,15c-1.2,1.2-1.3,3.1-0.1,4.3s3.1,1.3,4.3,0.1c0,0,0.1-0.1,0.1-0.1
		l15.2-15.2l6.1,5.8c3.9,3.7,10,3.7,13.9,0l6.2-5.9l15.2,15.2c1.2,1.2,3.1,1.2,4.3,0.1c1.2-1.2,1.2-3.1,0.1-4.3c0,0-0.1-0.1-0.1-0.1
		l-15-15l15-14.1c1.2-1.2,1.3-3.1,0.1-4.3c-1.2-1.2-3.1-1.3-4.3-0.1l0,0L51.5,37.1c-1.2,1.1-4.4,1.1-5.6,0L20.4,13
		C19.8,12.4,19,12.1,18.1,12.1"/>
</g>
</svg>
