<?xml version="1.0" encoding="utf-8"?>
<!-- Generator: Adobe Illustrator 20.1.0, SVG Export Plug-In . SVG Version: 6.00 Build 0)  -->
<svg version="1.1" id="Слой_1" xmlns="http://www.w3.org/2000/svg" xmlns:xlink="http://www.w3.org/1999/xlink" x="0px" y="0px"
	 viewBox="0 0 77.9 74.8" style="enable-background:new 0 0 77.9 74.8;" xml:space="preserve">
<style type="text/css">
	.st0{clip-path:url(#SVGID_2_);fill:#7ED2F1;}
</style>
<g>
	<defs>
		<rect id="SVGID_1_" y="0" width="77.9" height="74.8"/>
	</defs>
	<clipPath id="SVGID_2_">
		<use xlink:href="#SVGID_1_"  style="overflow:visible;"/>
	</clipPath>
	<path class="st0" d="M0,69.4c0,1,0.5,2,1.3,2.5c2.9,1.9,6.3,2.9,9.8,2.9c4.4,0,8.6-1.6,11.8-4.4c5.4,2.9,11.4,4.4,17.6,4.4
		c20.6,0,37.4-16.8,37.4-37.4C77.9,16.8,61.1,0,40.5,0C19.9,0,3.1,16.8,3.1,37.4c0,7.1,2,13.9,5.7,19.8c-1,4.1-3.6,7.7-7.3,9.8
		C0.6,67.5,0,68.4,0,69.4 M8.6,68.7c3.2-3.1,5.3-7.2,6.1-11.7c0.1-0.7,0-1.5-0.5-2.1c-3.5-5.2-5.4-11.3-5.4-17.6
		c0-17.4,14.2-31.6,31.6-31.6s31.6,14.2,31.6,31.6S57.9,69,40.5,69c-5.9,0-11.6-1.6-16.6-4.7c-0.5-0.3-1-0.4-1.5-0.4
		c-0.8,0-1.6,0.3-2.2,1C17.4,68.1,12.8,69.6,8.6,68.7"/>
</g>
</svg>
