<?xml version="1.0" encoding="utf-8"?>
<!-- Generator: Adobe Illustrator 20.1.0, SVG Export Plug-In . SVG Version: 6.00 Build 0)  -->
<svg version="1.1" id="Слой_1" xmlns="http://www.w3.org/2000/svg" xmlns:xlink="http://www.w3.org/1999/xlink" x="0px" y="0px"
	 viewBox="0 0 20 20" style="enable-background:new 0 0 20 20;" xml:space="preserve">
<style type="text/css">
	.st0{clip-path:url(#SVGID_2_);fill:#FFFFFF;}
	.st1{clip-path:url(#SVGID_2_);fill:#0039A6;}
	.st2{clip-path:url(#SVGID_2_);fill:#D52B1E;}
</style>
<g>
	<defs>
		<rect id="SVGID_1_" width="20" height="20"/>
	</defs>
	<clipPath id="SVGID_2_">
		<use xlink:href="#SVGID_1_"  style="overflow:visible;"/>
	</clipPath>
	<path class="st0" d="M19.4,6.7H0.6C1.9,2.8,5.6,0,10,0S18,2.8,19.4,6.7"/>
	<path class="st1" d="M20,10c0,1.2-0.2,2.3-0.6,3.3H0.6C0.2,12.3,0,11.2,0,10s0.2-2.3,0.6-3.3h18.9C19.8,7.7,20,8.8,20,10"/>
	<path class="st2" d="M19.4,13.3C18.1,17.2,14.3,20,10,20c-4.3,0-8.1-2.8-9.4-6.7H19.4z"/>
</g>
<text transform="matrix(1 0 0 1 297.6401 420.9452)" style="font-family:'MyriadPro-Regular'; font-size:12px;">Vector Smart Object1</text>
</svg>
