<?xml version="1.0" encoding="utf-8"?>
<!-- Generator: Adobe Illustrator 20.1.0, SVG Export Plug-In . SVG Version: 6.00 Build 0)  -->
<svg version="1.1" id="Слой_1" xmlns="http://www.w3.org/2000/svg" xmlns:xlink="http://www.w3.org/1999/xlink" x="0px" y="0px"
	 viewBox="0 0 97.7 83.3" style="enable-background:new 0 0 97.7 83.3;" xml:space="preserve">
<style type="text/css">
	.st0{clip-path:url(#SVGID_2_);}
</style>
<g>
	<defs>
		<rect id="SVGID_1_" width="97.7" height="83.3"/>
	</defs>
	<clipPath id="SVGID_2_">
		<use xlink:href="#SVGID_1_"  style="overflow:visible;"/>
	</clipPath>
	<path fill="#a2dcf4" class="st0" d="M93.6,38.7l4.1-6.2L48.5,0L0,32.5l4.1,6.2l9.7-6.5v51.1h70.3V32.5L93.6,38.7z M36.6,39.7c0,0,7.1-6,12.4,2.2
		c5.3-8.2,12.4-2.2,12.4-2.2c4.9,4.5,0,10.5,0,10.5C59.5,53.6,49.8,62.8,49,63.6l-0.1-0.1c-1.2-1.1-10.5-10-12.4-13.3
		C36.6,50.2,31.6,44.2,36.6,39.7"/>
</g>
</svg>
