<?xml version="1.0" encoding="utf-8"?>
<!-- Generator: Adobe Illustrator 20.1.0, SVG Export Plug-In . SVG Version: 6.00 Build 0)  -->
<svg version="1.1" id="Слой_1" xmlns="http://www.w3.org/2000/svg" xmlns:xlink="http://www.w3.org/1999/xlink" x="0px" y="0px"
	 viewBox="0 0 89.4 89.4" style="enable-background:new 0 0 89.4 89.4;" xml:space="preserve">
<style type="text/css">
	.st0{clip-path:url(#SVGID_2_);fill:#82D3F3;}
	.st1{clip-path:url(#SVGID_2_);fill:#ADE0F4;}
</style>
<g>
	<defs>
		<rect id="SVGID_1_" y="0" width="89.4" height="89.4"/>
	</defs>
	<clipPath id="SVGID_2_">
		<use xlink:href="#SVGID_1_"  style="overflow:visible;"/>
	</clipPath>
	<path class="st0" d="M6.9,67L0.1,87.9c-0.3,0.9,0.5,1.7,1.4,1.4l20.9-6.8C19.7,74.7,14.6,69.7,6.9,67"/>
	<path class="st0" d="M78.2,0.8c-2-0.8-4.9-1.4-6.9,0.5l-2.3,2.3c0.3,0.1,0.6,0.3,1,0.5c2.7,1.4,5.8,3.7,8.7,6.6
		c2.9,2.9,5.2,6,6.6,8.7c0.2,0.3,0.3,0.7,0.5,1L88,18c0.9-0.9,1.3-2,1.3-3.3C89.4,9.9,83.9,3.2,78.2,0.8"/>
	<path class="st1" d="M64.7,8L10.1,62.5c8,3.1,13.6,8.7,16.7,16.7l54.5-54.5c0.3-0.8-1.1-4.9-6.4-10.3C69.6,9.1,65.4,7.6,64.7,8"/>
</g>
</svg>
