<?xml version="1.0" encoding="utf-8"?>
<!-- Generator: Adobe Illustrator 20.1.0, SVG Export Plug-In . SVG Version: 6.00 Build 0)  -->
<svg version="1.1" id="Слой_1" xmlns="http://www.w3.org/2000/svg" xmlns:xlink="http://www.w3.org/1999/xlink" x="0px" y="0px"
	 viewBox="0 0 80.8 25.8" style="enable-background:new 0 0 80.8 25.8;" xml:space="preserve">
<style type="text/css">
	.st0{clip-path:url(#SVGID_2_);}
</style>
<g>
	<defs>
		<rect id="SVGID_1_" y="0" width="80.8" height="25.8"/>
	</defs>
	<clipPath id="SVGID_2_">
		<use xlink:href="#SVGID_1_"  style="overflow:visible;"/>
	</clipPath>
	<path class="st0" d="M68.2,3.8L68.2,3.8c-18-5.1-37.1-5.1-55,0L12.4,4C7.7,5.3,3.6,8.5,1.2,12.8l-0.5,0.9c-1,1.7-1,3.9,0,5.6
		l2.6,3.3c2.3,2.9,6.2,3.9,9.6,2.5l5.5-2.2c2.3-0.9,3.7-3.4,3.2-5.9l-0.8-4c-0.3-1.2,0.5-2.5,1.7-2.8c12-3.5,24.8-3.4,36.7,0.3
		c1.2,0.4,1.9,1.5,1.7,2.7l-0.6,3.5c-0.5,2.5,0.9,5,3.4,5.9l5,1.8c3.5,1.2,7.4,0,9.5-3l2-2.8c0.7-1.5,0.7-3.3,0-4.8
		C77.9,9,73.5,5.3,68.2,3.8"/>
</g>
</svg>
