<?xml version="1.0" encoding="utf-8"?>
<!-- Generator: Adobe Illustrator 20.1.0, SVG Export Plug-In . SVG Version: 6.00 Build 0)  -->
<svg version="1.1" id="Слой_1" xmlns="http://www.w3.org/2000/svg" xmlns:xlink="http://www.w3.org/1999/xlink" x="0px" y="0px"
	 viewBox="0 0 41.7 37.4" style="enable-background:new 0 0 41.7 37.4;" xml:space="preserve">
<style type="text/css">
	.st0{clip-path:url(#SVGID_2_);}
</style>
<g>
	<defs>
		<rect id="SVGID_1_" y="0" width="41.7" height="37.4"/>
	</defs>
	<clipPath id="SVGID_2_">
		<use xlink:href="#SVGID_1_"  style="overflow:visible;"/>
	</clipPath>
	<path class="st0" d="M14.1,4.7c1.7,3.6,8.9,22-11.3,32.5c-0.3,0.1-0.6,0.2-0.9,0.2c-0.7,0-1.4-0.4-1.7-1c-0.5-0.9-0.1-2.1,0.8-2.6
		c16.7-8.7,11.6-23.3,9.6-27.5c-0.2-0.5-0.5-0.9-0.7-1.1C9,4.3,8.1,4.1,8.1,4.1H7.9c0,0-1.5-0.3-2.7,0.3C5.1,4.5,4.9,4.6,4.8,4.7
		c-0.6,0.5-0.9,1.2-1,2.1c0,0.8,0.3,1.6,0.8,2.2c0.9,0.9,1.7,0.6,1.7,0.6c0.9-0.5,2.1-0.1,2.6,0.9C9.4,11.4,9,12.6,8,13.1
		c-1.2,0.6-3.8,1-6-1.3l-0.1-0.1c-1.3-1.3-2-3.2-1.9-5.1C0.1,4.7,0.9,3,2.3,1.8C2.7,1.5,3.1,1.2,3.5,1c2.3-1.2,4.8-0.7,5.3-0.6
		s2.3,0.5,3.9,2.3C13.2,3.1,13.7,3.8,14.1,4.7 M37.6,2.5c-1.6-1.7-3.5-2.2-3.9-2.3c-0.5-0.1-3-0.6-5.3,0.6C28,1,27.6,1.3,27.2,1.6
		c-1.4,1.2-2.2,2.9-2.3,4.8c-0.1,1.9,0.6,3.7,1.9,5.1l0.1,0.1c2.3,2.3,4.9,1.9,6,1.3c0.9-0.5,1.3-1.6,0.9-2.6
		c-0.5-0.9-1.6-1.3-2.6-0.9c0,0-0.7,0.3-1.7-0.6c-0.6-0.6-0.9-1.4-0.8-2.2c0-0.8,0.4-1.5,1-2.1c0.1-0.1,0.3-0.2,0.4-0.3
		c1.2-0.6,2.7-0.3,2.7-0.3h0.1c0,0,1,0.2,1.9,1.1c0.3,0.3,0.5,0.7,0.7,1.1c2,4.3,7.1,18.8-9.6,27.5c-0.9,0.5-1.3,1.6-0.8,2.6
		c0.3,0.7,1,1,1.7,1c0.3,0,0.6-0.1,0.9-0.2C47.9,26.5,40.7,8.1,39,4.5C38.6,3.8,38.1,3.1,37.6,2.5"/>
</g>
</svg>
