<?xml version="1.0" encoding="utf-8"?>
<!-- Generator: Adobe Illustrator 20.1.0, SVG Export Plug-In . SVG Version: 6.00 Build 0)  -->
<svg version="1.1" id="Слой_1" xmlns="http://www.w3.org/2000/svg" xmlns:xlink="http://www.w3.org/1999/xlink" x="0px" y="0px"
	 viewBox="0 0 17.9 17.9" style="enable-background:new 0 0 17.9 17.9;" xml:space="preserve">
<style type="text/css">
	.st0{clip-path:url(#SVGID_2_);}
</style>
<g>
	<defs>
		<rect id="SVGID_1_" y="0" width="17.9" height="17.9"/>
	</defs>
	<clipPath id="SVGID_2_">
		<use xlink:href="#SVGID_1_"  style="overflow:visible;"/>
	</clipPath>
	<path class="st0" d="M8,4C5.8,4,4,5.8,4,8c0,0.6,0.4,1,1,1s1-0.4,1-1c0-1.1,0.9-2,2-2c0.6,0,1-0.4,1-1C9,4.5,8.6,4,8,4"/>
	<path class="st0" d="M17.7,16.3l-3.4-3.4c2.7-3.5,2.1-8.5-1.4-11.2C9.4-1,4.4-0.4,1.7,3.1C-1,6.6-0.4,11.6,3.1,14.3
		c2.9,2.2,6.9,2.2,9.8,0l3.4,3.4c0.4,0.4,1.1,0.3,1.4-0.1C18,17.2,18,16.7,17.7,16.3L17.7,16.3z M2,8c0-3.3,2.7-6,6-6s6,2.7,6,6
		s-2.7,6-6,6S2,11.3,2,8"/>
</g>
</svg>
