<?xml version="1.0" encoding="utf-8"?>
<!-- Generator: Adobe Illustrator 20.1.0, SVG Export Plug-In . SVG Version: 6.00 Build 0)  -->
<svg version="1.1" id="Слой_1" xmlns="http://www.w3.org/2000/svg" xmlns:xlink="http://www.w3.org/1999/xlink" x="0px" y="0px"
	 viewBox="0 0 13.3 12.7" style="enable-background:new 0 0 13.3 12.7;" xml:space="preserve">
<style type="text/css">
	.st0{clip-path:url(#SVGID_2_);fill:url(#SVGID_3_);}
</style>
<g>
	<defs>
		<path id="SVGID_1_" d="M6.4,0.2L4.6,3.8C4.5,3.9,4.4,4,4.3,4l-4,0.6C0.1,4.6,0,4.8,0,4.9v0C0,5,0,5.1,0.1,5.1L3,8
			c0.1,0.1,0.1,0.2,0.1,0.3l-0.7,4c0,0.3,0.2,0.5,0.5,0.3l3.6-1.9c0.1,0,0.2,0,0.3,0l3.6,1.9c0.2,0.1,0.5-0.1,0.5-0.3l-0.7-4
			c0-0.1,0-0.2,0.1-0.3l2.9-2.9C13.4,5,13.3,4.6,13,4.6L9,4C8.9,4,8.8,3.9,8.7,3.8L6.9,0.2C6.9,0.1,6.8,0,6.6,0
			C6.5,0,6.4,0.1,6.4,0.2"/>
	</defs>
	<clipPath id="SVGID_2_">
		<use xlink:href="#SVGID_1_"  style="overflow:visible;"/>
	</clipPath>
	
		<linearGradient id="SVGID_3_" gradientUnits="userSpaceOnUse" x1="0" y1="12.679" x2="1" y2="12.679" gradientTransform="matrix(-13.2955 0 0 13.2955 13.2955 -162.1927)">
		<stop  offset="0" style="stop-color:#FBD56C"/>
		<stop  offset="1" style="stop-color:#F9AD32"/>
	</linearGradient>
	<rect y="0" class="st0" width="13.4" height="12.8"/>
</g>
<g>
	<defs>
		<path id="SVGID_4_" d="M21.6,0.2l-1.8,3.7c0,0.1-0.1,0.2-0.2,0.2l-4,0.6c-0.3,0-0.4,0.4-0.2,0.5L18.3,8c0.1,0.1,0.1,0.2,0.1,0.3
			l-0.7,4c0,0.3,0.2,0.5,0.5,0.3l3.6-1.9c0.1,0,0.2,0,0.3,0l3.6,1.9c0.2,0.1,0.5-0.1,0.5-0.3l-0.7-4c0-0.1,0-0.2,0.1-0.3l2.9-2.9
			c0.2-0.2,0.1-0.5-0.2-0.5l-4-0.6C24.1,4,24,3.9,24,3.8l-1.8-3.7C22.1,0.1,22,0,21.9,0C21.8,0,21.7,0.1,21.6,0.2"/>
	</defs>
	<clipPath id="SVGID_5_">
		<use xlink:href="#SVGID_4_"  style="overflow:visible;"/>
	</clipPath>
</g>
<g>
	<defs>
		<path id="SVGID_6_" d="M36.9,0.2l-1.8,3.7C35,3.9,34.9,4,34.8,4l-4,0.6c-0.3,0-0.4,0.4-0.2,0.5L33.5,8c0.1,0.1,0.1,0.2,0.1,0.3
			l-0.7,4c0,0.3,0.2,0.5,0.5,0.3l3.6-1.9c0.1,0,0.2,0,0.3,0l3.6,1.9c0.2,0.1,0.5-0.1,0.5-0.3l-0.7-4c0-0.1,0-0.2,0.1-0.3l2.9-2.9
			c0.2-0.2,0.1-0.5-0.2-0.5l-4-0.6c-0.1,0-0.2-0.1-0.2-0.2l-1.8-3.7C37.4,0.1,37.3,0,37.2,0C37,0,36.9,0.1,36.9,0.2"/>
	</defs>
	<clipPath id="SVGID_7_">
		<use xlink:href="#SVGID_6_"  style="overflow:visible;"/>
	</clipPath>
</g>
<g>
	<defs>
		<path id="SVGID_8_" d="M52.2,0.2l-1.8,3.7c0,0.1-0.1,0.2-0.2,0.2l-4,0.6c-0.3,0-0.4,0.4-0.2,0.5L48.8,8c0.1,0.1,0.1,0.2,0.1,0.3
			l-0.7,4c0,0.3,0.2,0.5,0.5,0.3l3.6-1.9c0.1,0,0.2,0,0.3,0l3.6,1.9c0.2,0.1,0.5-0.1,0.5-0.3l-0.7-4c0-0.1,0-0.2,0.1-0.3L59,5.1
			c0.2-0.2,0.1-0.5-0.2-0.5l-4-0.6c-0.1,0-0.2-0.1-0.2-0.2l-1.8-3.7C52.7,0.1,52.5,0,52.4,0C52.3,0,52.2,0.1,52.2,0.2"/>
	</defs>
	<clipPath id="SVGID_9_">
		<use xlink:href="#SVGID_8_"  style="overflow:visible;"/>
	</clipPath>
</g>
<g>
	<defs>
		<path id="SVGID_10_" d="M67.7,0c-0.1,0-0.2,0.1-0.3,0.2l-1.8,3.7c0,0.1-0.1,0.2-0.2,0.2l-4,0.6c-0.3,0-0.4,0.4-0.2,0.5L64.1,8
			c0.1,0.1,0.1,0.2,0.1,0.3l-0.7,4c0,0.3,0.2,0.5,0.5,0.3l3.6-1.9c0,0,0.1,0,0.1,0c0.1,0,0.1,0,0.1,0l3.6,1.9
			c0.2,0.1,0.5-0.1,0.5-0.3l-0.7-4c0-0.1,0-0.2,0.1-0.3l2.9-2.9c0.2-0.2,0.1-0.5-0.2-0.5l-4-0.6c-0.1,0-0.2-0.1-0.2-0.2L68,0.2
			C67.9,0.1,67.8,0,67.7,0z"/>
	</defs>
	<clipPath id="SVGID_11_">
		<use xlink:href="#SVGID_10_"  style="overflow:visible;"/>
	</clipPath>
</g>
</svg>
