<?xml version="1.0" encoding="utf-8"?>
<!-- Generator: Adobe Illustrator 20.1.0, SVG Export Plug-In . SVG Version: 6.00 Build 0)  -->
<svg version="1.1" id="Слой_1" xmlns="http://www.w3.org/2000/svg" xmlns:xlink="http://www.w3.org/1999/xlink" x="0px" y="0px"
	 viewBox="0 0 13.3 12.7" style="enable-background:new 0 0 13.3 12.7;" xml:space="preserve">
<style type="text/css">
	.st0{clip-path:url(#SVGID_2_);fill:url(#SVGID_3_);}
	.st1{clip-path:url(#SVGID_5_);fill:url(#SVGID_6_);}
	.st2{clip-path:url(#SVGID_8_);fill:url(#SVGID_9_);}
	.st3{clip-path:url(#SVGID_11_);fill:url(#SVGID_12_);}
	.st4{clip-path:url(#SVGID_14_);fill:#E5E5E5;}
</style>
<g>
	<defs>
		<path id="SVGID_1_" d="M-54.7,0.2l-1.8,3.7c0,0.1-0.1,0.2-0.2,0.2l-4,0.6c-0.2,0-0.3,0.2-0.3,0.3v0c0,0.1,0,0.2,0.1,0.2l2.9,2.9
			C-58,8.1-58,8.2-58,8.3l-0.7,4c0,0.3,0.2,0.5,0.5,0.3l3.6-1.9c0.1,0,0.2,0,0.3,0l3.6,1.9c0.2,0.1,0.5-0.1,0.5-0.3l-0.7-4
			c0-0.1,0-0.2,0.1-0.3l2.9-2.9c0.2-0.2,0.1-0.5-0.2-0.5l-4-0.6c-0.1,0-0.2-0.1-0.2-0.2l-1.8-3.7C-54.2,0.1-54.3,0-54.4,0
			C-54.6,0-54.7,0.1-54.7,0.2"/>
	</defs>
	<clipPath id="SVGID_2_">
		<use xlink:href="#SVGID_1_"  style="overflow:visible;"/>
	</clipPath>
	
		<linearGradient id="SVGID_3_" gradientUnits="userSpaceOnUse" x1="-61.0938" y1="12.679" x2="-60.0938" y2="12.679" gradientTransform="matrix(-13.2955 0 0 13.2955 -860.068 -162.1927)">
		<stop  offset="0" style="stop-color:#FBD56C"/>
		<stop  offset="1" style="stop-color:#F9AD32"/>
	</linearGradient>
	<rect x="-61.1" y="0" class="st0" width="13.4" height="12.8"/>
</g>
<g>
	<defs>
		<path id="SVGID_4_" d="M-39.5,0.2l-1.8,3.7c0,0.1-0.1,0.2-0.2,0.2l-4,0.6c-0.3,0-0.4,0.4-0.2,0.5l2.9,2.9c0.1,0.1,0.1,0.2,0.1,0.3
			l-0.7,4c0,0.3,0.2,0.5,0.5,0.3l3.6-1.9c0.1,0,0.2,0,0.3,0l3.6,1.9c0.2,0.1,0.5-0.1,0.5-0.3l-0.7-4c0-0.1,0-0.2,0.1-0.3l2.9-2.9
			c0.2-0.2,0.1-0.5-0.2-0.5l-4-0.6c-0.1,0-0.2-0.1-0.2-0.2l-1.8-3.7C-39,0.1-39.1,0-39.2,0C-39.3,0-39.4,0.1-39.5,0.2"/>
	</defs>
	<clipPath id="SVGID_5_">
		<use xlink:href="#SVGID_4_"  style="overflow:visible;"/>
	</clipPath>
	
		<linearGradient id="SVGID_6_" gradientUnits="userSpaceOnUse" x1="-61.0938" y1="12.679" x2="-60.0938" y2="12.679" gradientTransform="matrix(-13.2955 0 0 13.2955 -844.8168 -162.1927)">
		<stop  offset="0" style="stop-color:#FBD56C"/>
		<stop  offset="1" style="stop-color:#F9AD32"/>
	</linearGradient>
	<rect x="-45.9" y="0" class="st1" width="13.5" height="12.8"/>
</g>
<g>
	<defs>
		<path id="SVGID_7_" d="M-24.2,0.2L-26,3.8c0,0.1-0.1,0.2-0.2,0.2l-4,0.6c-0.3,0-0.4,0.4-0.2,0.5l2.9,2.9c0.1,0.1,0.1,0.2,0.1,0.3
			l-0.7,4c0,0.3,0.2,0.5,0.5,0.3l3.6-1.9c0.1,0,0.2,0,0.3,0l3.6,1.9c0.2,0.1,0.5-0.1,0.5-0.3l-0.7-4c0-0.1,0-0.2,0.1-0.3l2.9-2.9
			c0.2-0.2,0.1-0.5-0.2-0.5l-4-0.6c-0.1,0-0.2-0.1-0.2-0.2l-1.8-3.7C-23.7,0.1-23.8,0-23.9,0C-24.1,0-24.2,0.1-24.2,0.2"/>
	</defs>
	<clipPath id="SVGID_8_">
		<use xlink:href="#SVGID_7_"  style="overflow:visible;"/>
	</clipPath>
	
		<linearGradient id="SVGID_9_" gradientUnits="userSpaceOnUse" x1="-61.0938" y1="12.679" x2="-60.0938" y2="12.679" gradientTransform="matrix(-13.2955 0 0 13.2955 -829.5656 -162.1927)">
		<stop  offset="0" style="stop-color:#FBD56C"/>
		<stop  offset="1" style="stop-color:#F9AD32"/>
	</linearGradient>
	<rect x="-30.7" y="0" class="st2" width="13.5" height="12.8"/>
</g>
<g>
	<defs>
		<path id="SVGID_10_" d="M-8.9,0.2l-1.8,3.7c0,0.1-0.1,0.2-0.2,0.2l-4,0.6c-0.3,0-0.4,0.4-0.2,0.5l2.9,2.9c0.1,0.1,0.1,0.2,0.1,0.3
			l-0.7,4c0,0.3,0.2,0.5,0.5,0.3l3.6-1.9c0.1,0,0.2,0,0.3,0l3.6,1.9c0.2,0.1,0.5-0.1,0.5-0.3l-0.7-4c0-0.1,0-0.2,0.1-0.3l2.9-2.9
			C-1.9,5-2,4.6-2.3,4.6l-4-0.6c-0.1,0-0.2-0.1-0.2-0.2l-1.8-3.7C-8.4,0.1-8.5,0-8.7,0C-8.8,0-8.9,0.1-8.9,0.2"/>
	</defs>
	<clipPath id="SVGID_11_">
		<use xlink:href="#SVGID_10_"  style="overflow:visible;"/>
	</clipPath>
	
		<linearGradient id="SVGID_12_" gradientUnits="userSpaceOnUse" x1="-61.0938" y1="12.679" x2="-60.0938" y2="12.679" gradientTransform="matrix(-13.2955 0 0 13.2955 -814.2816 -162.1927)">
		<stop  offset="0" style="stop-color:#FBD56C"/>
		<stop  offset="1" style="stop-color:#F9AD32"/>
	</linearGradient>
	<rect x="-15.4" y="0" class="st3" width="13.5" height="12.8"/>
</g>
<g>
	<defs>
		<rect id="SVGID_13_" x="-61.1" y="0" width="74.4" height="12.7"/>
	</defs>
	<clipPath id="SVGID_14_">
		<use xlink:href="#SVGID_13_"  style="overflow:visible;"/>
	</clipPath>
	<path class="st4" d="M13.2,5.1C13.4,5,13.3,4.6,13,4.6L9,4C8.9,4,8.8,3.9,8.7,3.8L6.9,0.2C6.9,0.1,6.7,0,6.6,0
		C6.5,0,6.4,0.1,6.3,0.2L4.5,3.8C4.5,3.9,4.4,4,4.3,4l-4,0.6C0,4.6-0.1,5,0.1,5.1L3,8c0.1,0.1,0.1,0.2,0.1,0.3l-0.7,4
		c0,0.3,0.2,0.5,0.5,0.3l3.6-1.9c0,0,0.1,0,0.1,0c0.1,0,0.1,0,0.1,0l3.6,1.9c0.2,0.1,0.5-0.1,0.5-0.3l-0.7-4c0-0.1,0-0.2,0.1-0.3
		L13.2,5.1z"/>
</g>
</svg>
