<?xml version="1.0" encoding="utf-8"?>
<!-- Generator: Adobe Illustrator 20.1.0, SVG Export Plug-In . SVG Version: 6.00 Build 0)  -->
<svg version="1.1" id="Layer_1" xmlns="http://www.w3.org/2000/svg" xmlns:xlink="http://www.w3.org/1999/xlink" x="0px" y="0px"
	 viewBox="0 0 38.7 27.7" style="enable-background:new 0 0 38.7 27.7;" xml:space="preserve">
<style type="text/css">
	.st0{fill:#9BD2F0;}
	.st1{fill:#FFFFFF;}
	.st2{fill:#BADFF1;}
</style>
<g>
	<g>
		<g>
			<path class="st0" d="M22.8,27h-6.9C7.1,27,0,19.9,0,11.1V3.5c0-0.4,0.3-0.7,0.7-0.7H38c0.4,0,0.7,0.3,0.7,0.7v7.6
				C38.7,19.9,31.6,27,22.8,27z"/>
		</g>
		<path class="st1" d="M23,26.1h-7.3C7.6,26.1,1,19.1,1,10.4l0,0h36.6l0,0C37.7,19.1,31.1,26.1,23,26.1z"/>
	</g>
	<path class="st2" d="M38,2.8H0.7C0.3,2.8,0,3.1,0,3.5v7.6c8.8,0,15.9,7.1,15.9,15.9c0,0.4,0.3,0.7,0.7,0.7h5.5
		c0.4,0,0.7-0.3,0.7-0.7c0-8.8,7.1-15.9,15.9-15.9V3.5C38.7,3.1,38.4,2.8,38,2.8z"/>
	<g>
		<path class="st0" d="M37.3,0h-36C1,0,0.7,0.3,0.7,0.7v2.1H38V0.7C38,0.3,37.7,0,37.3,0z"/>
	</g>
	<g>
		<path class="st1" d="M20,2.8h-1.4V2.1c0-0.4,0.3-0.7,0.7-0.7l0,0c0.4,0,0.7,0.3,0.7,0.7V2.8z"/>
	</g>
	<g>
		<path class="st1" d="M31.1,2.8h-1.4V2.1c0-0.4,0.3-0.7,0.7-0.7l0,0c0.4,0,0.7,0.3,0.7,0.7V2.8z"/>
	</g>
	<g>
		<path class="st1" d="M36.7,2.8h-1.4V2.1c0-0.4,0.3-0.7,0.7-0.7l0,0c0.4,0,0.7,0.3,0.7,0.7V2.8z"/>
	</g>
	<g>
		<path class="st1" d="M25.6,2.8h-1.4V2.1c0-0.4,0.3-0.7,0.7-0.7l0,0c0.4,0,0.7,0.3,0.7,0.7V2.8z"/>
	</g>
	<g>
		<path class="st1" d="M9,2.7H7.6V2c0-0.4,0.3-0.7,0.7-0.7l0,0C8.7,1.3,9,1.6,9,2V2.7z"/>
	</g>
	<g>
		<path class="st1" d="M14.5,2.8h-1.4V2.1c0-0.4,0.3-0.7,0.7-0.7l0,0c0.4,0,0.7,0.3,0.7,0.7V2.8z"/>
	</g>
	<g>
		<path class="st1" d="M3.4,2.7H2V2c0-0.4,0.3-0.7,0.7-0.7l0,0c0.4,0,0.7,0.3,0.7,0.7V2.7z"/>
	</g>
</g>
</svg>
