<?xml version="1.0" encoding="utf-8"?>
<!-- Generator: Adobe Illustrator 20.1.0, SVG Export Plug-In . SVG Version: 6.00 Build 0)  -->
<svg version="1.1" id="Layer_1" xmlns="http://www.w3.org/2000/svg" xmlns:xlink="http://www.w3.org/1999/xlink" x="0px" y="0px"
	 viewBox="0 0 37.7 31.7" style="enable-background:new 0 0 37.7 31.7;" xml:space="preserve">
<style type="text/css">
	.st0{fill:none;}
	.st1{fill:#BADFF1;}
	.st2{fill:#FFFFFF;}
	.st3{fill:#9BD2F0;}
</style>
<g>
	<path class="st0" d="M18.9,13.2c-0.1,0.1-0.2,0.1-0.3,0.2C18.7,13.3,18.8,13.3,18.9,13.2z"/>
	<path class="st0" d="M19.3,12.8c-0.1,0.1-0.2,0.2-0.2,0.2C19.1,13,19.2,12.9,19.3,12.8z"/>
	<path class="st0" d="M18.4,13.5c-0.1,0.1-0.2,0.1-0.4,0.1C18.1,13.6,18.2,13.6,18.4,13.5z"/>
	<path class="st0" d="M12.5,21.5c0,0.1,0,0.3,0,0.4C12.5,21.8,12.5,21.7,12.5,21.5z"/>
	<path class="st0" d="M19.7,12.3c-0.1,0.1-0.1,0.2-0.2,0.3C19.5,12.5,19.6,12.4,19.7,12.3z"/>
	<path class="st0" d="M17.4,13.7c0.1,0,0.3,0,0.4,0C17.7,13.7,17.5,13.7,17.4,13.7C17.4,13.7,17.4,13.7,17.4,13.7z"/>
	<path class="st0" d="M19.6,9.4c-0.1-0.2-0.3-0.4-0.5-0.6c0,0,0,0,0,0C19.3,8.9,19.5,9.1,19.6,9.4z"/>
	<path class="st0" d="M12.4,19.5c0,0,0,0.1,0,0.1C12.4,19.6,12.4,19.5,12.4,19.5z"/>
	<path class="st0" d="M35.6,18.1c-0.6-0.3-1.4-0.6-2.2-0.8C34.2,17.6,35,17.9,35.6,18.1z"/>
	<path class="st0" d="M19.7,9.5c0.1,0.1,0.1,0.2,0.1,0.3C19.8,9.7,19.8,9.6,19.7,9.5z"/>
	<path class="st0" d="M20,10.1c0,0.1,0,0.1,0,0.2C20,10.3,20,10.2,20,10.1z"/>
	<path class="st0" d="M20.1,10.9c0-0.1,0-0.2,0-0.3C20.1,10.7,20.1,10.8,20.1,10.9C20.1,10.9,20.1,10.9,20.1,10.9z"/>
	<path class="st0" d="M20,11.2c0,0.1,0,0.2-0.1,0.4C20,11.4,20,11.3,20,11.2z"/>
	<path class="st0" d="M19.9,11.8c0,0.1-0.1,0.2-0.1,0.3C19.8,12,19.9,11.9,19.9,11.8z"/>
	<path class="st0" d="M11.6,26.5c-0.1,0.2-0.2,0.4-0.4,0.5C11.4,26.9,11.5,26.7,11.6,26.5z"/>
	<path class="st0" d="M11.9,25.8c-0.1,0.2-0.1,0.3-0.2,0.5C11.8,26.2,11.8,26,11.9,25.8z"/>
	<path class="st0" d="M12.5,22.4c0,0.2,0,0.3,0,0.5C12.5,22.7,12.5,22.5,12.5,22.4z"/>
	<path class="st0" d="M11.2,27.1c-0.1,0.1-0.2,0.2-0.4,0.3C10.9,27.4,11,27.3,11.2,27.1z"/>
	<path class="st0" d="M10.6,27.6c-0.1,0.1-0.3,0.1-0.4,0.2C10.4,27.7,10.5,27.7,10.6,27.6z"/>
	<path class="st0" d="M10,27.9C9.8,27.9,9.6,28,9.4,28C9.6,28,9.8,27.9,10,27.9z"/>
	<path class="st0" d="M12.1,25.1c0,0.2-0.1,0.4-0.2,0.5C12,25.4,12.1,25.3,12.1,25.1z"/>
	<path class="st0" d="M12.3,24.1c0,0.3-0.1,0.5-0.1,0.7C12.3,24.6,12.3,24.4,12.3,24.1z"/>
	<path class="st0" d="M12.4,23.2c0,0.2,0,0.5-0.1,0.7C12.4,23.7,12.4,23.5,12.4,23.2z"/>
	<path class="st1" d="M29.1,28c-4.2-0.3-3-8.5-2.4-12c-4.2-0.3-8.1-0.3-9.3-0.4c-0.7-0.8-1.9-1.2-2.3-1.9h0c0,0-0.1,0-0.1,0
		c-0.6-1-0.9-1.9-0.9-2.7c0,0,0,0,0,0c0.1-1.5,0.5-2.2,1.2-3c0,0,0,0,0.1,0h0c1.4-1.5,3.7-2.4,4.6-2.7c5.9-1,14.8,0.5,16,0.6
		c-0.1-0.4-0.1-1.2-0.2-1.6c-0.4-2.1-2.9-4.2-5-4.2c-2.1-0.1-4.2,0.1-6.3,0.3c-1.7,0.1-3.4,0.3-5.2,0.3h-0.2
		c-3.6,0-7.5,0.1-11.3,0.2C5.7,0.9,3.8,2.4,3.3,4.3C3.3,4.6,3.2,4.8,3.2,5c0,0,0.1-0.1,0.1-0.1c0,0,7.2-0.1,8.5,0.7
		c0,0-8,1.5-0.6,0.5c2.1-0.3-8.8,1.4-2.3,8.2c0,0,5.8,1.7,5.3,1.7c0,0,0,0,0,0c-0.6,0.1-1.3,0.1-2.2,0.2c0.1,0.9,0.3,2,0.4,3.2
		c0,0,0,0.1,0,0.1c0.1,0.6,0.1,1.3,0.1,1.9c0,0.1,0,0.3,0,0.4c0,0.1,0,0.3,0,0.4c0,0.2,0,0.3,0,0.5c0,0.1,0,0.3,0,0.4
		c0,0.2,0,0.5-0.1,0.7c0,0.1,0,0.1,0,0.2c0,0.3-0.1,0.5-0.1,0.7c0,0.1,0,0.2-0.1,0.2c0,0.2-0.1,0.4-0.2,0.5c0,0.1-0.1,0.2-0.1,0.2
		c-0.1,0.2-0.1,0.3-0.2,0.5c0,0,0,0.1-0.1,0.1c-0.1,0.2-0.2,0.4-0.4,0.5c0,0-0.1,0.1-0.1,0.1c-0.1,0.1-0.2,0.2-0.4,0.3
		c-0.1,0-0.1,0.1-0.2,0.1c-0.1,0.1-0.3,0.1-0.4,0.2c-0.1,0-0.1,0.1-0.2,0.1C9.8,27.9,9.6,28,9.3,28c-1.5,0.1-2.6,0.1-3.4,0l0.6,0.9
		c1.3,1.7,4,2.9,6,2.9c1.7,0,3.3,0,5,0c2.6,0,5.2,0,7.7-0.1c1.7,0,5-0.8,6.3-2.5c0.2-0.3,0.4-0.6,0.6-0.8
		C31.3,28.4,30.6,28.1,29.1,28z"/>
	<path class="st1" d="M17.2,13.8c0.1,0,0.1,0,0.2,0c0,0,0,0,0,0C17.3,13.7,17.3,13.8,17.2,13.8z"/>
	<path class="st1" d="M19.1,8.7C18.6,8.3,17.9,8,17.2,8H17C17.8,8,18.5,8.3,19.1,8.7C19.1,8.8,19.1,8.7,19.1,8.7z"/>
	<path class="st1" d="M6,28c0,0-4.9-6-5.2-8s3.5-3.7,3.5-3.7l8.1-0.4l3.1,1.8c0,0,0.5,9.2,0,9.4c-0.5,0.3-7.3,2.2-7.3,2.2L6,28z"/>
	<path class="st1" d="M32.2,28.3c0,0,2.9-4.2,3.3-4.7s0.8-1,1.1-1.6c0.3-0.7,0.7-2.1,0.8-2.7c0.2-0.6-2.5-3.1-2.9-3.4
		c-0.4-0.3-6.9-0.1-7.6-0.2c-0.8-0.1-3.8,3.1-3.8,3.1s0.9,8.9,1.4,8.9s3.2,1.5,3.2,1.5L32.2,28.3z"/>
	<path class="st2" d="M10.2,27.3c0.2,0,0.5-0.1,0.7-0.1c0.1,0,0.1,0,0.2-0.1c0.1-0.1,0.3-0.1,0.4-0.2c0.1,0,0.1-0.1,0.2-0.1
		c0.1-0.1,0.2-0.2,0.4-0.3c0,0,0.1-0.1,0.1-0.1c0.1-0.2,0.3-0.3,0.4-0.5c0,0,0-0.1,0.1-0.1c0.1-0.2,0.2-0.3,0.2-0.5
		c0-0.1,0.1-0.2,0.1-0.2c0.1-0.2,0.1-0.3,0.2-0.5c0-0.1,0-0.2,0.1-0.2c0.1-0.2,0.1-0.5,0.1-0.7c0-0.1,0-0.1,0-0.2
		c0-0.2,0.1-0.4,0.1-0.7c0-0.1,0-0.3,0-0.4c0-0.2,0-0.3,0-0.5c0-0.1,0-0.3,0-0.4c0-0.1,0-0.3,0-0.4c0-0.6,0-1.3-0.1-1.9
		c0,0,0-0.1,0-0.1c-0.1-1.2-0.3-2.3-0.4-3.2c-3.7,0.5-9.5,1.6-11.2,3.7c0,0,0,0-0.1-0.1c0.3,1,0.8,1.9,1.2,2.5c1,1.4,2,2.8,3,4.2
		l1,1.4C7.6,27.4,8.7,27.4,10.2,27.3z"/>
	<path class="st2" d="M36.6,18.8c-0.4-0.5-1-0.9-1.8-1.3c-0.7-0.2-1.4-0.5-2.2-0.8c-2.1-0.6-4.6-0.9-7.2-1.1
		c-0.6,3.4-1.6,11.8,2.6,12.1c1.4,0.1,2.5,0.1,3.4,0c0,0,0,0,0,0l1-1.4c1-1.4,2-2.9,3-4.2c0.6-0.9,1-2.5,1.3-3.8c0,0,0,0,0,0
		C36.7,18.4,36.6,18.6,36.6,18.8z"/>
	<path class="st2" d="M17.4,13.7c0.1,0,0.3,0,0.4,0c0.1,0,0.1,0,0.2-0.1c0.1,0,0.3-0.1,0.4-0.1c0.1,0,0.1-0.1,0.2-0.1
		c0.1-0.1,0.2-0.1,0.3-0.2c0.1,0,0.1-0.1,0.2-0.2c0.1-0.1,0.2-0.2,0.2-0.2c0.1-0.1,0.1-0.1,0.2-0.2c0.1-0.1,0.1-0.2,0.2-0.3
		c0-0.1,0.1-0.1,0.1-0.2c0.1-0.1,0.1-0.2,0.1-0.3c0-0.1,0.1-0.2,0.1-0.2c0-0.1,0-0.2,0.1-0.4c0-0.1,0-0.2,0-0.3c0-0.1,0-0.3,0-0.4
		c0-0.1,0-0.1,0-0.2c0,0,0,0,0,0c0-0.1,0-0.1,0-0.2c0-0.1-0.1-0.2-0.1-0.4c0-0.1-0.1-0.2-0.1-0.3c0,0,0-0.1-0.1-0.1
		c-0.1-0.2-0.3-0.4-0.5-0.6C18.5,8.3,17.8,8,17,8h-1.4c0,0,0,0-0.1,0c-0.7,0.8-1.1,1.4-1.2,3c0,0,0,0,0,0c0,0.8,0.3,1.7,0.9,2.7
		c0,0,0,0,0.1,0h2C17.3,13.8,17.3,13.7,17.4,13.7z"/>
</g>
<g>
	<path class="st3" d="M10.4,10.5c0-2.5,1.6-4.6,3.8-5.4c0.2-0.1,0.2-0.4-0.1-0.4C9.7,4.6,3.3,4.9,3.3,4.9C3.3,5,3.2,5,3.2,5
		C3.1,5.1,2.9,5.2,2.8,5.3C2.4,6.9,2,8.5,1.5,10.1c-0.5,1.8-1,3.7-1.5,5.6c-0.1,0.7-0.1,1.5,0,2.3c0,0,0,0,0,0
		c0.3,0.9,0.5,1.6,0.6,1.9c0,0.1,0.1,0.1,0.1,0.1c1.7-2.1,7.5-3.2,11.2-3.7c0.9-0.1,1.6-0.2,2.2-0.2c0,0,0,0,0,0c0.1,0,0.2,0,0.2,0
		C12.1,15.2,10.4,13.1,10.4,10.5z"/>
</g>
<path class="st3" d="M20.8,16c1.6,0,3.5,0.1,5.4,0.3c2.5,0.2,5.1,0.5,7.2,1.1c0.8,0.2,1.6,0.5,2.2,0.8c0.8,0.4,1.4,0.8,1.8,1.3
	c0.1-0.2,0.1-0.4,0.2-0.6c0-0.1,0.1-0.2,0.1-0.4c0-0.9,0-2.1-0.1-3.6c-0.3-1.6-0.5-3.2-0.7-4.9c-0.2-1.5-0.4-3.1-0.7-4.7
	c-1.2-0.1-8.9-0.7-15-0.5c-0.7,0-1.1,0-1.7,0c-3.1,0-5.7,2.5-5.7,5.7c0,1.9,0.9,3.5,2.3,4.6c0.2,0.3,0.7,0.5,0.9,0.8
	c0.2,0,0.3,0,0.7,0"/>
<path class="st2" d="M19.1,12.4h-1.9c-1.1,0-1.9-0.9-1.9-1.9v0c0-1.1,0.9-1.9,1.9-1.9h1.9c1.1,0,1.9,0.9,1.9,1.9v0
	C21,11.6,20.2,12.4,19.1,12.4z"/>
</svg>
