<?xml version="1.0" encoding="utf-8"?>
<!-- Generator: Adobe Illustrator 20.1.0, SVG Export Plug-In . SVG Version: 6.00 Build 0)  -->
<svg version="1.1" id="Layer_3" xmlns="http://www.w3.org/2000/svg" xmlns:xlink="http://www.w3.org/1999/xlink" x="0px" y="0px"
	 viewBox="0 0 298.5 67.7" style="enable-background:new 0 0 298.5 67.7;" xml:space="preserve">
<style type="text/css">
	.st0{fill:url(#SVGID_1_);}
	.st1{fill:url(#SVGID_2_);}
	.st2{fill:#9BD2F0;}
	.st3{fill:#BADFF1;}
	.st4{fill:#72BFE6;}
	.st5{fill:#3C5DA7;}
	.st6{fill:#CA232A;}
	.st7{fill:none;}
</style>
<g>
	<g>
		<g>
			<g>
				<g>
					<linearGradient id="SVGID_1_" gradientUnits="userSpaceOnUse" x1="69.5118" y1="37.2913" x2="111.6796" y2="37.2913">
						<stop  offset="1.982887e-07" style="stop-color:#F2F09D"/>
						<stop  offset="0.9967" style="stop-color:#DAB436"/>
					</linearGradient>
					<path class="st0" d="M110.7,22.1L70,36.6c-0.3,0.1-0.5,0.4-0.5,0.7c0,0.3,0.2,0.6,0.5,0.7l40.7,14.5c0.4,0.1,0.8-0.1,0.9-0.4
						c0-0.1,0-0.2,0-0.2c0-0.3-0.2-0.6-0.5-0.7c0,0-26.6-9.4-35.9-12.7c-1-0.3-1-1.7,0-2.1c9.3-3.3,35.9-12.7,35.9-12.7
						c0.3-0.1,0.5-0.4,0.5-0.7c0-0.1,0-0.2,0-0.2C111.5,22.2,111.1,22,110.7,22.1z"/>
				</g>
			</g>
			<linearGradient id="SVGID_2_" gradientUnits="userSpaceOnUse" x1="110.7402" y1="35.6752" x2="298.5101" y2="35.6752">
				<stop  offset="0" style="stop-color:#F2D075"/>
				<stop  offset="1" style="stop-color:#F6F4B4"/>
			</linearGradient>
			<path class="st1" d="M110.7,20v35.6c0,0,54.3-13.2,93.1-11s85,18.9,85,18.9l-13.7-23.3l23.3-12.5c0,0-60.7-20-104-19.8
				C155.2,8,110.7,20,110.7,20z"/>
		</g>
		<g>
			<path class="st2" d="M69.5,34.9c-1.6,0.1-5,0.1-9.6-0.4c-0.2,0-0.4-0.2-0.5-0.3c-0.9-1.9-5.9-11.8-3.9-13.3
				c2.2-1.7,6.3,1,9.6,5.3c2.4,3.2,4.2,6.4,4.9,7.9C70.2,34.4,70,34.9,69.5,34.9z"/>
			<path class="st2" d="M43.2,35.1c-2.6-0.2-10.5-0.8-21.6-3.5c-0.2-0.1-0.4-0.2-0.4-0.4c-1-3-8.7-25.4-4.9-29.4
				c5.5-5.7,13,3.7,18.8,13.6c4.8,8.1,7.8,16.3,8.8,18.9C43.9,34.6,43.6,35.1,43.2,35.1z"/>
			<path class="st3" d="M5.9,44.4c-2.8-3.3-1.2-23.5,2.9-25.2c4.2-1.7,53.4,10.1,56.4,9c2.9-1.1,5.4-9,6.3-9c0.9,0,6.8,1.2,7,1.2
				c0.2,0-7.9,25.9-9.3,25.9C67.8,46.3,8.6,47.7,5.9,44.4z"/>
			<g>
				<g>
					<g>
						<path class="st4" d="M8.8,12.4C8.1,19.2,6.2,28.2,4.9,28C3.7,27.9,3.7,18.7,4.5,12c0.7-6.7,1.9-8.4,3.1-8.3
							C8.8,3.8,9.5,5.7,8.8,12.4z"/>
						<path class="st4" d="M0.4,49.7C1.1,43,3.1,34,4.3,34.1c1.2,0.1,1.2,9.3,0.5,16.1c-0.7,6.7-1.9,8.4-3.1,8.3
							C0.5,58.4-0.3,56.5,0.4,49.7z"/>
					</g>
				</g>
				<path class="st5" d="M7,31.3c-0.2,1.9-0.5,3.4-2.3,3.2C3,34.3-0.2,32.5,0,30.6c0.2-1.9,3.7-3,5.4-2.9C7.2,27.9,7.2,29.5,7,31.3z
					"/>
			</g>
			<path class="st4" d="M20.5,22.9c-0.3-0.2-0.3-0.6-0.1-0.8c1.2-1.8,5.9-8.4,13-8.5c10.5-0.2,15.1,6.9,15.4,13.5
				c0,0.3-0.2,0.6-0.5,0.6C45.1,28.2,29.4,30.1,20.5,22.9z"/>
			<path class="st2" d="M22.6,36.8c2.6-0.2,10.5-0.5,21.9,0.9c0.2,0,0.4,0.2,0.5,0.3c1.5,2.9,12.9,25.3,8.4,28.6
				c-4.7,3.5-13.3-2.1-20.3-11.2c-5.8-7.5-9.7-15.2-11-17.7C21.9,37.3,22.2,36.8,22.6,36.8z"/>
			<path class="st2" d="M60.9,37.4c1.6-0.1,5-0.1,9.6,0.4c0.2,0,0.4,0.2,0.5,0.3c0.9,1.9,5.9,11.8,3.9,13.3c-2.2,1.7-6.3-1-9.6-5.3
				c-2.4-3.2-4.2-6.4-4.9-7.9C60.1,37.9,60.4,37.4,60.9,37.4z"/>
			<g>
				<path class="st5" d="M11.5,19.1C11.5,19.1,11.5,19.1,11.5,19.1c-0.3,0-0.6,0.2-0.7,0.5C9.6,25,8.3,33.5,8.4,44.8
					c0,0.3,0.2,0.6,0.5,0.6c0,0,0,0,0.1,0c0.4,0.1,0.7-0.2,0.7-0.6c-0.1-11.1,1.2-19.4,2.4-24.9C12.2,19.5,11.9,19.1,11.5,19.1z"/>
				<path class="st5" d="M14.4,19.4C14.4,19.4,14.4,19.4,14.4,19.4c-0.3,0-0.6,0.2-0.7,0.5c-1.2,5.5-2.5,14-2.4,25.3
					c0,0.3,0.2,0.6,0.6,0.6c0,0,0,0,0.1,0c0.4,0,0.7-0.3,0.7-0.6c-0.1-11.1,1.1-19.4,2.3-25C15,19.8,14.7,19.4,14.4,19.4z"/>
			</g>
		</g>
	</g>
</g>
<circle class="st6" cx="133.6" cy="32.6" r="12"/>
<path id="SVGID_x5F_3_x5F_" class="st7" d="M-64.8,273.8C-53.7,130.6,71.4,23.5,214.6,34.6s250.3,136.2,239.2,279.5
	c-11.1,143.2-136.2,250.3-279.5,239.2S-76,417-64.8,273.8z"/>
<text><textPath  xlink:href="#SVGID_x5F_3_x5F_" startOffset="100%">
<tspan  style="fill:#732E2E; font-family:'BaskOldFace'; font-size:25px;">JAPAN</tspan><tspan  style="fill:#732E2E; font-family:'BaskOldFace'; font-size:15px;">Quality</tspan></textPath>
</text>
</svg>
