<?xml version="1.0" encoding="utf-8"?>
<!-- Generator: Adobe Illustrator 20.1.0, SVG Export Plug-In . SVG Version: 6.00 Build 0)  -->
<svg version="1.1" id="Слой_1" xmlns="http://www.w3.org/2000/svg" xmlns:xlink="http://www.w3.org/1999/xlink" x="0px" y="0px"
	 viewBox="0 0 646.3 385.2" style="enable-background:new 0 0 646.3 385.2;" xml:space="preserve">
<style type="text/css">
	.st0{clip-path:url(#SVGID_2_);fill:#FFFFFF;}
</style>
<g>
	<defs>
		<rect id="SVGID_1_" width="646.3" height="385.2"/>
	</defs>
	<clipPath id="SVGID_2_">
		<use xlink:href="#SVGID_1_"  style="overflow:visible;"/>
	</clipPath>
	<path class="st0" d="M146.4,189.9c0,40.4-32.8,73.2-73.2,73.2S0,230.3,0,189.9c0-40.4,32.8-73.2,73.2-73.2S146.4,149.5,146.4,189.9
		"/>
	<path class="st0" d="M361.9,126.8c0,70-56.8,126.8-126.8,126.8c-70,0-126.8-56.8-126.8-126.8S165.1,0,235.1,0
		C305.1,0,361.9,56.8,361.9,126.8"/>
	<path class="st0" d="M646.3,176.2c0,94-76.2,170.2-170.2,170.2c-94,0-170.2-76.2-170.2-170.2C305.8,82.2,382,6,476,6
		C570.1,6,646.3,82.2,646.3,176.2"/>
	<path class="st0" d="M410,270.2c0,63.5-51.5,115-115,115s-115-51.5-115-115c0-63.5,51.5-115,115-115S410,206.8,410,270.2"/>
	<path class="st0" d="M240.5,255.6c0,43-34.9,77.9-77.9,77.9s-77.9-34.9-77.9-77.9c0-43,34.9-77.9,77.9-77.9
		S240.5,212.6,240.5,255.6"/>
</g>
</svg>
