<?xml version="1.0" encoding="utf-8"?>
<!-- Generator: Adobe Illustrator 20.1.0, SVG Export Plug-In . SVG Version: 6.00 Build 0)  -->
<svg version="1.1" id="Слой_1" xmlns="http://www.w3.org/2000/svg" xmlns:xlink="http://www.w3.org/1999/xlink" x="0px" y="0px"
	 viewBox="0 0 761.5 407.9" style="enable-background:new 0 0 761.5 407.9;" xml:space="preserve">
<style type="text/css">
	.st0{clip-path:url(#SVGID_2_);fill:#FFFFFF;}
</style>
<g>
	<defs>
		<rect id="SVGID_1_" width="761.5" height="407.9"/>
	</defs>
	<clipPath id="SVGID_2_">
		<use xlink:href="#SVGID_1_"  style="overflow:visible;"/>
	</clipPath>
	<path class="st0" d="M446.4,169c0,93.4-99.9,169-223.2,169S0,262.4,0,169S99.9,0,223.2,0S446.4,75.7,446.4,169"/>
	<path class="st0" d="M567.9,113.9c0,62.9-51,113.9-113.9,113.9c-62.9,0-113.9-51-113.9-113.9S391.1,0,454,0
		C516.9,0,567.9,51,567.9,113.9"/>
	<path class="st0" d="M444.4,288.5c0,66-53.5,119.4-119.4,119.4c-66,0-119.4-53.5-119.4-119.4c0-66,53.5-119.4,119.4-119.4
		C390.9,169,444.4,222.5,444.4,288.5"/>
	<path class="st0" d="M626.2,288.1c0,66-53.5,119.4-119.4,119.4c-66,0-119.4-53.5-119.4-119.4c0-66,53.5-119.4,119.4-119.4
		C572.7,168.6,626.2,222.1,626.2,288.1"/>
	<path class="st0" d="M761.5,184.5c0,66-67.1,119.4-149.9,119.4c-82.8,0-149.9-53.5-149.9-119.4c0-66,67.1-119.4,149.9-119.4
		C694.4,65.1,761.5,118.5,761.5,184.5"/>
</g>
</svg>
