<?xml version="1.0" encoding="utf-8"?>
<!-- Generator: Adobe Illustrator 20.1.0, SVG Export Plug-In . SVG Version: 6.00 Build 0)  -->
<svg version="1.1" id="Слой_1" xmlns="http://www.w3.org/2000/svg" xmlns:xlink="http://www.w3.org/1999/xlink" x="0px" y="0px"
	 viewBox="0 0 848.4 384.5" style="enable-background:new 0 0 848.4 384.5;" xml:space="preserve">
<style type="text/css">
	.st0{clip-path:url(#SVGID_2_);fill:#FFFFFF;}
</style>
<g>
	<defs>
		<rect id="SVGID_1_" width="848.4" height="384.5"/>
	</defs>
	<clipPath id="SVGID_2_">
		<use xlink:href="#SVGID_1_"  style="overflow:visible;"/>
	</clipPath>
	<path class="st0" d="M248.8,166.1c0,68.7-55.7,124.4-124.4,124.4S0,234.8,0,166.1S55.7,41.7,124.4,41.7S248.8,97.4,248.8,166.1"/>
	<path class="st0" d="M375.4,110.4c0,57.6-46.7,104.4-104.4,104.4S166.7,168,166.7,110.4S213.4,6,271,6S375.4,52.7,375.4,110.4"/>
	<path class="st0" d="M340.7,237.3c0,50.7-41.1,91.9-91.9,91.9S157,288.1,157,237.3c0-50.7,41.1-91.9,91.9-91.9
		S340.7,186.6,340.7,237.3"/>
	<path class="st0" d="M588.9,222.7c0,89.4-72.5,161.9-161.9,161.9s-161.9-72.5-161.9-161.9S337.6,60.8,427,60.8
		S588.9,133.2,588.9,222.7"/>
	<path class="st0" d="M848.4,198.3c0,99.6-80.7,180.3-180.3,180.3s-180.3-80.7-180.3-180.3S568.4,17.9,668,17.9
		S848.4,98.6,848.4,198.3"/>
	<path class="st0" d="M563.3,114.7c0,63.3-51.3,114.7-114.7,114.7C385.3,229.3,334,178,334,114.7C334,51.3,385.3,0,448.6,0
		C511.9,0,563.3,51.3,563.3,114.7"/>
</g>
</svg>
