<svg xmlns="http://www.w3.org/2000/svg" width="35" height="33" viewBox="0 0 35 33"><defs><clipPath id="a"><path fill="#fff" d="M1097.05 3698.2c-24.49-10.74-33.22 29.79-3.13 30.72 18.49.57 19.19-25.19 5.65-29.84-.77-.22-1.02-.29-1.4-.5.16.14-1.28-.52-1.12-.38z"/></clipPath></defs><path fill="#fff" d="M17.83 49.66v-33h35v33z"/><path fill="none" stroke="#fff" stroke-dasharray="4 4" stroke-miterlimit="50" stroke-width="4" d="M1097.05 3698.2c-24.49-10.74-33.22 29.79-3.13 30.72 18.49.57 19.19-25.19 5.65-29.84-.77-.22-1.02-.29-1.4-.5.16.14-1.28-.52-1.12-.38z" clip-path="url(&quot;#a&quot;)" transform="translate(-1074 -3696)"/></svg>