<?xml version="1.0" encoding="utf-8"?>
<!-- Generator: Adobe Illustrator 20.1.0, SVG Export Plug-In . SVG Version: 6.00 Build 0)  -->
<svg  version="1.1" id="Layer_1" xmlns="http://www.w3.org/2000/svg" xmlns:xlink="http://www.w3.org/1999/xlink" x="0px" y="0px"
	 viewBox="0 0 361.4 594" style="enable-background:new 0 0 361.4 594;" xml:space="preserve" >
<style type="text/css">
	.st0{fill:url(#SVGID_1_);}
	.st1{fill:#FFFACC;}
</style>
<g>
	<linearGradient id="SVGID_1_" gradientUnits="userSpaceOnUse" x1="-0.1733" y1="296.9997" x2="361.4233" y2="296.9997">
		<stop  offset="0" style="stop-color:#FFD26E"/>
		<stop  offset="1" style="stop-color:#F9FFB1"/>
	</linearGradient>
	<path  class="st0" d="M100.4,296.7c0-150,114.6-273.3,261-287.1c-0.3-1.5-1.4-2.9-3.3-3.3C338.3,2.2,317.8,0,296.8,0
		C136,0,5,127.8,0,287.4c-5.4,170.3,134.5,311,304.8,306.5c18.2-0.5,36-2.6,53.2-6.2c2.1-0.4,3.3-2.1,3.4-3.9
		C215,570,100.4,446.7,100.4,296.7z"/>
	<path class="st1" d="M358.4,579.3C239.6,540.5,153.8,428.8,153.8,297c0-131.8,85.8-243.5,204.6-282.3c2.4-0.8,3.3-3.1,2.9-5
		c-146.4,13.8-261,137.1-261,287.1c0,150.1,114.6,273.3,261.1,287.1C361.5,582,360.6,580,358.4,579.3z"/>
</g>
</svg>
