<?xml version="1.0" encoding="utf-8"?>
<!-- Generator: Adobe Illustrator 20.1.0, SVG Export Plug-In . SVG Version: 6.00 Build 0)  -->
<svg version="1.1" id="Слой_1" xmlns="http://www.w3.org/2000/svg" xmlns:xlink="http://www.w3.org/1999/xlink" x="0px" y="0px"
	 viewBox="0 0 490.7 490.7" style="enable-background:new 0 0 490.7 490.7;" xml:space="preserve">
<style type="text/css">
	.st0{clip-path:url(#SVGID_2_);fill:#8DD4FF;}
	.st1{clip-path:url(#SVGID_4_);fill:url(#SVGID_5_);}
	.st2{clip-path:url(#SVGID_7_);fill:#9FD6FF;}
</style>
<g>
	<defs>
		<rect id="SVGID_1_" width="490.7" height="490.7"/>
	</defs>
	<clipPath id="SVGID_2_">
		<use xlink:href="#SVGID_1_"  style="overflow:visible;"/>
	</clipPath>
	<path class="st0" d="M70.2,287.5c8.6-8.6,18.7-15.4,29.9-20.2c2-0.8,11.1-2.9,13.2-3.4c-5-9.9-6.9-17-11.5-27.1c0,0-3.5-4-3.5-4
		c-2-2.9-9.9-3.2-11.8-6l-1.1,0.5c-16.5,6.7-32.1,16.7-45.5,30.1c-53.4,53.4-53.4,139.9,0,193.3c53.4,53.4,139.9,53.4,193.3,0
		c13.6-13.6,23.7-29.3,30.4-46.1c-13.8-7.5-22.4-24.2-33.8-31.2l-5.9,15.7c-4.7,11.8-11.8,22.4-20.8,31.4
		c-36.7,36.7-96.2,36.7-132.9,0C33.5,383.7,33.5,324.2,70.2,287.5"/>
</g>
<g>
	<defs>
		<path id="SVGID_3_" d="M307.3,31.5c-32.4,32.4-37.5,70.6-57.8,113.5c-10.5,22-25,45.3-49.3,69.7c18.1,31.4,47.2,59.3,76,76
			c24.4-24.4,47.6-38.9,69.7-49.3c42.9-20.4,81-25.4,113.5-57.8c20.9-20.9,31.4-48.2,31.5-75.6v-0.7c-0.1-27.4-10.6-54.7-31.5-75.6
			c-21-21-48.5-31.5-76-31.5S328.2,10.5,307.3,31.5"/>
	</defs>
	<clipPath id="SVGID_4_">
		<use xlink:href="#SVGID_3_"  style="overflow:visible;"/>
	</clipPath>
	
		<radialGradient id="SVGID_5_" cx="-2.415556e-06" cy="490.663" r="1" gradientTransform="matrix(145.2883 0 0 -145.2883 345.3799 71432.8906)" gradientUnits="userSpaceOnUse">
		<stop  offset="0" style="stop-color:#DAEEFF"/>
		<stop  offset="1.982890e-07" style="stop-color:#DAEEFF"/>
		<stop  offset="1" style="stop-color:#AEE1FF"/>
	</radialGradient>
	<rect x="200.1" y="0" class="st1" width="290.6" height="290.6"/>
</g>
<g>
	<defs>
		<rect id="SVGID_6_" width="490.7" height="490.7"/>
	</defs>
	<clipPath id="SVGID_7_">
		<use xlink:href="#SVGID_6_"  style="overflow:visible;"/>
	</clipPath>
	<path class="st2" d="M276.1,290.6c-28.8-16.6-57.8-44.6-76-76c24.4-24.4,38.9-47.6,49.3-69.7C165.4,76.5,83.7,46.4,53,77.1
		c-24.9,24.9-9.7,83.6,33.6,149.7c20.7,31.7,47.8,65,80,97.2c32.2,32.2,65.6,59.3,97.2,80c66.2,43.3,124.8,58.5,149.7,33.6
		c30.7-30.7,0.5-112.4-67.9-196.4C323.7,251.7,300.4,266.2,276.1,290.6"/>
</g>
</svg>
