<?xml version="1.0" encoding="utf-8"?>
<!-- Generator: Adobe Illustrator 20.1.0, SVG Export Plug-In . SVG Version: 6.00 Build 0)  -->
<svg version="1.1" id="Layer_3" xmlns="http://www.w3.org/2000/svg" xmlns:xlink="http://www.w3.org/1999/xlink" x="0px" y="0px"
	 viewBox="0 0 1000 1000" style="enable-background:new 0 0 1000 1000;" xml:space="preserve">
<style type="text/css">
	.st0{fill:#FCF6E4;}
	.st1{fill:#F3E4B0;}
	.st2{fill:#E6D375;}
	.st3{fill:#631618;}
	.st4{font-family:'BaskOldFace';}
	.st5{font-size:31px;}
	.st6{font-size:19px;}
	.st7{fill:#D3BA54;}
	.st8{fill:#FFFFFF;}
	.st9{fill:#CA232A;}
</style>
<circle class="st0" cx="663.3" cy="659.5" r="65.7"/>
<circle class="st1" cx="663.3" cy="659.5" r="51.8"/>
<circle class="st2" cx="663.3" cy="659.5" r="38.2"/>
<g>
	<text transform="matrix(1 0 0 1 620.6033 680.0643)"><tspan x="0" y="0" class="st3 st4 st5">JAPAN</tspan><tspan x="14.7" y="17" class="st3 st4 st6">Quality</tspan></text>
</g>
<path class="st7" d="M647.8,633.1l-2.4,18.3c0,0,13.9-2.2,22.9,0c9.1,2.2,11.1-3,11.1-3v-16c0,0-9.8,1.7-17.9,0
	C653.6,630.6,647.8,633.1,647.8,633.1z"/>
<path class="st8" d="M647.8,633l-2.3,17c0,0,13.4-2.1,22.1,0s10.8-2.8,10.8-2.8v-14.9c0,0-9.5,1.6-17.2,0S647.8,633,647.8,633z"/>
<circle class="st9" cx="663.6" cy="641" r="6.6"/>
</svg>
