<?xml version="1.0" encoding="utf-8"?>
<!-- Generator: Adobe Illustrator 20.1.0, SVG Export Plug-In . SVG Version: 6.00 Build 0)  -->
<svg version="1.1" id="Слой_1" xmlns="http://www.w3.org/2000/svg" xmlns:xlink="http://www.w3.org/1999/xlink" x="0px" y="0px"
	 viewBox="0 0 143.6 38.9" style="enable-background:new 0 0 143.6 38.9;" xml:space="preserve">
<style type="text/css">
	.st0{clip-path:url(#SVGID_2_);fill:#304095;}
	.st1{clip-path:url(#SVGID_2_);fill:#E8AE41;}
	.st2{clip-path:url(#SVGID_2_);fill:#D97A2C;}
</style>
<g>
	<defs>
		<rect id="SVGID_1_" y="0" width="143.6" height="38.9"/>
	</defs>
	<clipPath id="SVGID_2_">
		<use xlink:href="#SVGID_1_"  style="overflow:visible;"/>
	</clipPath>
	<path class="st0" d="M57.8,29V13.9h-3.9v12.9c-0.4,0.2-1,0.4-1.5,0.4c-1.2,0-1.9-0.8-1.9-2.1V13.9h-3.9v10.8c0,4,2.1,5.6,5.6,5.6
		C54.8,30.3,56.7,29.8,57.8,29"/>
	<path class="st0" d="M71.4,30V18.6c0-3.4-1.8-5-5.7-5c-2.4,0-4.3,0.5-5.5,1.2V30h3.8V16.7c0.4-0.2,0.8-0.3,1.6-0.3
		c1.4,0,1.9,0.8,1.9,2.2V30"/>
	<path class="st0" d="M77.7,10.7c0-1.2-1-2.1-2.1-2.1c-1.1,0-2.1,0.9-2.1,2.1c0,1.1,0.9,2.1,2.1,2.1C76.7,12.8,77.7,11.8,77.7,10.7"
		/>
	<path class="st0" d="M88.1,29.1l-0.8-2.6c-0.4,0.4-0.9,0.6-1.7,0.6c-1.5,0-2.5-2-2.5-5.2c0-3.2,0.8-5.2,2.6-5.2
		c0.8,0,1.3,0.3,1.6,0.6l0.8-2.4c-0.6-0.7-1.6-1.2-3.3-1.2c-3,0-5.5,2.8-5.5,8.3c0,5.5,2.3,8.4,5.5,8.4
		C86.5,30.3,87.5,29.7,88.1,29.1"/>
	<path class="st0" d="M100.8,30V18.7c0-3.1-1.7-5-4.6-5c-1.1,0-2,0.3-2.8,0.7V8.6h-3.8V30h3.8V16.9c0.5-0.3,1-0.4,1.7-0.4
		c1.2,0,1.9,0.8,1.9,2.2V30"/>
	<path class="st0" d="M109.9,27.4c-0.3,0.1-0.8,0.3-1.4,0.3c-1.5,0-2.3-0.9-2.3-2.6c0-2.3,1.2-3.2,3.7-3.5 M113.7,29.1v-9.6
		c0-4.4-2.3-5.9-5.3-5.9c-2.4,0-4,0.7-4.9,1.2l0.8,2.5c0.9-0.4,2.1-0.8,3.4-0.8c1.4,0,2.3,0.7,2.3,2.2v0.5c-4.3,0.6-7.3,1.8-7.3,6
		c0,3.2,1.9,5,5.8,5C110.9,30.3,112.5,29.8,113.7,29.1"/>
	<path class="st0" d="M123.6,13.6c-3.7-0.2-5.7,0.3-7.2,1.2V30h3.8V16.7c0.7-0.4,1.8-0.4,2.6,0.1"/>
	<path class="st0" d="M143.6,30V18.6c0-3.2-1.9-5-4.6-5c-2.1,0-3.4,0.6-4.3,1.5c-0.7-0.9-2-1.5-4.3-1.5c-2.6,0-4.2,0.5-5.4,1.2V30
		h3.8V16.7c0.4-0.2,0.8-0.3,1.6-0.3c1.3,0,2,0.9,2,2.2V30h3.9V17.1c0.4-0.5,1-0.7,1.7-0.7c1.2,0,1.8,0.9,1.8,2.2V30"/>
	<polyline class="st0" points="77.5,13.9 77.5,30 73.7,30 73.7,13.9 	"/>
	<path class="st0" d="M19.4,2.4c-9.4,0-17,7.6-17,17c0,9.4,7.6,17,17,17c9.4,0,17-7.6,17-17C36.5,10.1,28.8,2.4,19.4,2.4 M38.9,19.4
		c0,10.7-8.7,19.4-19.4,19.4C8.7,38.9,0,30.2,0,19.4C0,8.7,8.7,0,19.4,0C30.2,0,38.9,8.7,38.9,19.4"/>
	<path class="st1" d="M19.5,21.4c-3.4-1.1-5.9-2.8-5.9-6.4c0-1.6,1-3.5,1-5.6c0-2.9-3.8-3.6-7,0c-1.6,1.7-3.7,5.4-3.7,10
		c0,6.9,4.5,11.9,8.5,13.9C23.1,38.4,30.1,24.8,19.5,21.4"/>
	<path class="st2" d="M28.8,15.5c1.3,0.3,2.4,1.2,3.3,2.7c1.8,2.9,2.3,7.5-1,11.5c-1.2,1.4-3.7,3.1-6.6,3.3c-2.3,0.1-4.4-0.9-5.6-2
		c-1.8-1.8-1.7-5.7,2.2-6c2.3-0.2,4-1.7,4.6-2.8c0.6-1.1,1.1-3.2,1-4.9C26.7,16,27.4,15.1,28.8,15.5"/>
</g>
</svg>
