<svg style="position: absolute; width: 0; height: 0; overflow: hidden;" version="1.1" xmlns="http://www.w3.org/2000/svg">
<defs>
<symbol id="icon-vk" viewBox="0 0 57 32">
<title>vk</title>
<path d="M54.261 1.391h-9.183c-0.835 0-1.391 0.557-1.948 1.113 0 0-3.617 6.678-4.73 8.904-3.061 6.122-5.287 4.174-5.287 1.391v-11.687c0-0.557-0.557-1.113-1.113-1.113h-8.626c-1.948 0-3.896 0.835-5.009 2.226 0 0 3.617-0.557 3.617 4.174 0 1.113 0 4.452 0 7.235 0 1.113-0.835 1.948-1.948 1.948-0.557 0.278-1.113 0-1.67-0.278-2.783-4.174-5.009-8.348-6.957-12.8-0.278-0.557-0.835-1.113-1.67-1.113h-8.348c-0.835 0-1.391 0.557-1.391 1.391 0 0.278 0 0.278 0 0.557 2.504 6.957 13.357 28.661 25.878 28.661h7.235v-5.287c0-1.113 0.835-1.948 1.948-1.948 0.557 0 1.113 0.278 1.391 0.557l6.957 6.4c0.278 0.278 0.278 0.278 0.557 0.278h8.904c3.896 0 3.896-2.783 1.67-5.009-1.391-1.391-6.957-7.235-6.957-7.235-0.835-1.113-1.113-2.504-0.278-3.617 2.226-2.226 5.009-6.122 6.4-7.791 1.67-2.226 4.73-6.957 0.557-6.957z"></path>
</symbol>
<symbol id="icon-tw" viewBox="0 0 37 32">
<title>tw</title>
<path fill="#fff" style="fill: var(--color1, #fff)" d="M36.588 3.785c-1.376 0.688-2.753 1.032-4.358 1.262 1.606-1.032 2.753-2.523 3.326-4.473-1.491 0.918-3.097 1.606-4.817 1.95-1.262-1.491-3.326-2.523-5.391-2.523-4.129 0-7.455 3.556-7.455 8.029 0 0.573 0.115 1.262 0.229 1.835-6.308-0.229-11.928-3.556-15.599-8.373-0.688 1.147-1.032 2.523-1.032 4.014 0 2.753 1.376 5.276 3.326 6.767-1.262 0-2.409-0.344-3.441-1.032 0 0 0 0.115 0 0.115 0 3.9 2.638 7.111 5.964 7.914-0.459 0.229-1.147 0.229-1.835 0.229-0.459 0-0.918 0-1.376-0.115 0.918 3.211 3.67 5.505 6.996 5.62-2.523 2.179-5.849 3.441-9.29 3.441-0.573 0-1.262 0-1.835-0.115 3.326 2.294 7.226 3.67 11.47 3.67 13.763 0 21.333-12.272 21.333-22.939 0-0.344 0-0.688 0-1.032 1.491-1.147 2.753-2.638 3.785-4.244z"></path>
</symbol>
<symbol id="icon-title-line" viewBox="0 0 597 32">
<title>title-line</title>
<path fill="#ffd360" style="fill: var(--color2, #ffd360)" d="M5.333 13.867s416.8-30.4 580.853-1.067c71.84 12.853-544 9.067-570.933 13.173-26.933 4.213-9.92-12.107-9.92-12.107z"></path>
</symbol>
<symbol id="icon-search" viewBox="0 0 32 32">
<title>search</title>
<path d="M14.302 7.151c-3.933 0-7.151 3.218-7.151 7.151 0 1.073 0.715 1.788 1.788 1.788s1.788-0.715 1.788-1.788c0-1.966 1.609-3.575 3.575-3.575 1.073 0 1.788-0.715 1.788-1.788 0-0.894-0.715-1.788-1.788-1.788z"></path>
<path d="M31.642 29.14l-6.078-6.078c4.827-6.257 3.754-15.196-2.503-20.022s-15.196-3.754-20.022 2.503c-4.827 6.257-3.754 15.196 2.503 20.022 5.184 3.933 12.335 3.933 17.52 0l6.078 6.078c0.715 0.715 1.966 0.536 2.503-0.179s0.536-1.609 0-2.324v0zM3.575 14.302c0-5.899 4.827-10.726 10.726-10.726s10.726 4.827 10.726 10.726-4.827 10.726-10.726 10.726-10.726-4.827-10.726-10.726z"></path>
</symbol>
<symbol id="icon-quote" viewBox="0 0 36 32">
<title>quote</title>
<path d="M12.064 4.021c1.455 3.080 7.615 18.824-9.668 27.808-0.257 0.086-0.513 0.171-0.77 0.171-0.599 0-1.198-0.342-1.455-0.856-0.428-0.77-0.086-1.797 0.684-2.225 14.289-7.444 9.925-19.936 8.214-23.529-0.171-0.428-0.428-0.77-0.599-0.941-0.77-0.77-1.54-0.941-1.54-0.941h-0.171c0 0-1.283-0.257-2.31 0.257-0.086 0.086-0.257 0.171-0.342 0.257-0.513 0.428-0.77 1.027-0.856 1.797 0 0.684 0.257 1.369 0.684 1.882 0.77 0.77 1.455 0.513 1.455 0.513 0.77-0.428 1.797-0.086 2.225 0.77 0.428 0.77 0.086 1.797-0.77 2.225-1.027 0.513-3.251 0.856-5.134-1.112l-0.086-0.086c-1.112-1.112-1.711-2.738-1.626-4.364s0.77-3.080 1.968-4.107c0.342-0.257 0.684-0.513 1.027-0.684 1.968-1.027 4.107-0.599 4.535-0.513s1.968 0.428 3.337 1.968c0.428 0.342 0.856 0.941 1.198 1.711zM32.171 2.139c-1.369-1.455-2.995-1.882-3.337-1.968-0.428-0.086-2.567-0.513-4.535 0.513-0.342 0.171-0.684 0.428-1.027 0.684-1.198 1.027-1.882 2.481-1.968 4.107s0.513 3.166 1.626 4.364l0.086 0.086c1.968 1.968 4.192 1.626 5.134 1.112 0.77-0.428 1.112-1.369 0.77-2.225-0.428-0.77-1.369-1.112-2.225-0.77 0 0-0.599 0.257-1.455-0.513-0.513-0.513-0.77-1.198-0.684-1.882 0-0.684 0.342-1.283 0.856-1.797 0.086-0.086 0.257-0.171 0.342-0.257 1.027-0.513 2.31-0.257 2.31-0.257h0.086c0 0 0.856 0.171 1.626 0.941 0.257 0.257 0.428 0.599 0.599 0.941 1.711 3.679 6.075 16.086-8.214 23.529-0.77 0.428-1.112 1.369-0.684 2.225 0.257 0.599 0.856 0.856 1.455 0.856 0.257 0 0.513-0.086 0.77-0.171 17.283-8.984 11.123-24.727 9.668-27.808-0.342-0.599-0.77-1.198-1.198-1.711z"></path>
</symbol>
<symbol id="icon-phone" viewBox="0 0 100 32">
<title>phone</title>
<path d="M84.589 4.713v0c-22.326-6.326-46.016-6.326-68.217 0l-0.992 0.248c-5.829 1.612-10.915 5.581-13.891 10.915l-0.62 1.116c-1.24 2.109-1.24 4.837 0 6.946l3.225 4.093c2.853 3.597 7.69 4.837 11.907 3.101l6.822-2.729c2.853-1.116 4.589-4.217 3.969-7.318l-0.992-4.961c-0.372-1.488 0.62-3.101 2.109-3.473 14.884-4.341 30.76-4.217 45.519 0.372 1.488 0.496 2.357 1.86 2.109 3.349l-0.744 4.341c-0.62 3.101 1.116 6.202 4.217 7.318l6.202 2.233c4.341 1.488 9.178 0 11.783-3.721l2.481-3.473c0.868-1.86 0.868-4.093 0-5.953-2.853-5.954-8.31-10.543-14.884-12.403z"></path>
</symbol>
<symbol id="icon-icon-youtube" viewBox="0 0 46 32">
<title>icon-youtube</title>
<path d="M45.624 6.812c0-3.802-3.010-6.812-6.812-6.812h-32c-3.802 0-6.812 3.010-6.812 6.812v18.218c0 3.802 3.010 6.812 6.812 6.812h32c3.802 0 6.812-3.010 6.812-6.812v-18.218zM18.218 23.762v-17.267l12.99 8.554-12.99 8.713z"></path>
</symbol>
<symbol id="icon-heart" viewBox="0 0 34 32">
<title>heart</title>
<path d="M0-0.95h35.918v32.95h-35.918v-32.95z"></path>
</symbol>
<symbol id="icon-google-plus" viewBox="0 0 31 32">
<title>google-plus</title>
<path fill="#fff" style="fill: var(--color1, #fff)" d="M16.41 18.359c-0.923-0.615-2.564-2.154-2.564-3.077 0-1.026 0.308-1.538 1.949-2.872 1.641-1.231 2.769-3.077 2.769-5.128 0-2.462-1.128-4.923-3.18-5.744h3.077l2.154-1.538h-9.846c-4.41 0-8.615 3.385-8.615 7.282 0 4 2.974 7.179 7.487 7.179 0.308 0 0.615 0 0.923 0-0.308 0.513-0.513 1.231-0.513 1.846 0 1.128 0.615 2.051 1.333 2.769-0.615 0-1.128 0-1.744 0-5.538 0-9.744 3.487-9.744 7.18 0 3.59 4.615 5.846 10.154 5.846 6.256 0 9.744-3.59 9.744-7.18 0.103-2.974-0.82-4.718-3.385-6.564zM11.077 13.436c-2.564-0.103-4.923-2.872-5.333-6.154-0.513-3.385 1.231-5.949 3.795-5.846s4.923 2.769 5.436 6.154c0.41 3.282-1.333 5.949-3.897 5.846zM10.154 30.359c-3.795 0-6.564-2.359-6.564-5.333 0-2.872 3.385-5.231 7.179-5.128 0.923 0 1.744 0.103 2.462 0.41 2.051 1.436 3.59 2.256 4 3.897 0.103 0.308 0.103 0.718 0.103 1.026 0 2.872-1.846 5.128-7.18 5.128z"></path>
<path fill="#fff" style="fill: var(--color1, #fff)" d="M26.974 13.744v-3.897h-3.18v3.897h-3.795v3.077h3.795v3.897h3.18v-3.897h3.795v-3.077z"></path>
</symbol>
<symbol id="icon-flag" viewBox="0 0 32 32">
<title>flag</title>
<path fill="#fff" style="fill: var(--color1, #fff)" d="M31.040 10.72h-30.080c2.080-6.24 8-10.72 15.040-10.72s12.8 4.48 15.040 10.72z"></path>
<path fill="#0039a6" style="fill: var(--color3, #0039a6)" d="M32 16c0 1.92-0.32 3.68-0.96 5.28h-30.080c-0.64-1.6-0.96-3.36-0.96-5.28s0.32-3.68 0.96-5.28h30.24c0.48 1.6 0.8 3.36 0.8 5.28z"></path>
<path fill="#d52b1e" style="fill: var(--color4, #d52b1e)" d="M31.040 21.28c-2.080 6.24-8.16 10.72-15.040 10.72s-12.96-4.48-15.040-10.72h30.080z"></path>
</symbol>
<symbol id="icon-fb" viewBox="0 0 15 32">
<title>fb</title>
<path fill="#fff" style="fill: var(--color1, #fff)" d="M14.94 10.397h-5.047v-3.331c0-1.211 0.808-1.514 1.413-1.514s3.533 0 3.533 0v-5.552h-4.946c-5.451 0-6.763 4.038-6.763 6.662v3.634h-3.129v5.653h3.129c0 7.268 0 16.050 0 16.050h6.662c0 0 0-8.883 0-16.050h4.442l0.707-5.552z"></path>
</symbol>
<symbol id="icon-cart" viewBox="0 0 32 32">
<title>cart</title>
<path d="M29.853 14.93c0-5.354-3.054-10.002-7.508-12.309-0.087-0.787-0.6-1.5-1.394-1.78-3.194-1.127-6.755-1.12-9.949 0.007-0.793 0.28-1.3 0.994-1.394 1.78-4.448 2.314-7.495 6.955-7.495 12.303h-1.5c0 2.354 0.213 4.268 2.567 4.268 0 7.068 5.735 12.803 12.803 12.803s12.803-5.735 12.803-12.803c2.354 0 2.854-1.914 2.854-4.268h-1.787zM10.462 4.581c0.36 0.26 0.793 0.413 1.254 0.413 0.233 0 0.473-0.040 0.713-0.12 2.267-0.814 4.828-0.807 7.101-0.007 0.673 0.24 1.374 0.080 1.92-0.313 3.721 1.967 6.268 5.881 6.268 10.376h-23.472c0-4.474 2.521-8.368 6.215-10.349zM12.783 26.666c0 0.587-0.48 1.067-1.067 1.067s-1.067-0.48-1.067-1.067v-7.468h2.134v7.468zM17.050 26.666c0 0.587-0.48 1.067-1.067 1.067s-1.067-0.48-1.067-1.067v-7.468h2.134v7.468zM21.318 26.666c0 0.587-0.48 1.067-1.067 1.067s-1.067-0.48-1.067-1.067v-7.468h2.134v7.468z"></path>
<path d="M31.64 19.217h-3.147c-0.433 0-0.794-0.353-0.794-0.794v-2.707c0-0.44 0.353-0.793 0.794-0.793h3.147c0.433 0 0.794 0.353 0.794 0.793v2.707c0 0.44-0.353 0.794-0.794 0.794z"></path>
<path d="M3.934 19.217h-3.141c-0.433 0-0.793-0.353-0.793-0.794v-2.707c0-0.44 0.353-0.793 0.793-0.793h3.141c0.433 0 0.793 0.353 0.793 0.793v2.707c0 0.44-0.353 0.794-0.793 0.794z"></path>
</symbol>
<symbol id="icon-arrow-next" viewBox="0 0 19 32">
<title>arrow-next</title>
<path stroke-width="5.1852" stroke-miterlimit="10" stroke-linecap="round" stroke-linejoin="round" d="M2.593 2.593l13.407 13.407-13.407 13.407"></path>
</symbol>
<symbol id="icon-arrow-full" viewBox="0 0 32 32">
<title>arrow-full</title>
<path d="M31.412 17.722c1.008-1.008 1.008-2.52 0-3.528l-13.606-13.438c-2.352-2.352-5.963 1.176-3.528 3.528l7.979 7.979c0.672 0.672 0.42 1.176-0.504 1.176h-19.234c-1.428 0-2.52 1.092-2.52 2.52s1.092 2.52 2.52 2.52h19.15c0.924 0 1.176 0.504 0.504 1.176l-7.979 7.979c-2.352 2.352 1.176 5.963 3.528 3.528l13.69-13.438z"></path>
</symbol>
<symbol id="icon-arrow-back" viewBox="0 0 19 32">
<title>arrow-back</title>
<path stroke-width="5.1852" stroke-miterlimit="10" stroke-linecap="round" stroke-linejoin="round" d="M2.593 2.593l13.407 13.407-13.407 13.407"></path>
</symbol>
<symbol id="icon-age-3" viewBox="0 0 19 32">
<title>age-3</title>
<path fill="#fff" style="fill: var(--color1, #fff)" d="M4.976 13.238c0.639-0.183 1.141-0.639 1.461-1.187 0.32-0.593 0.365-1.233 0.183-1.872s-0.639-1.141-1.233-1.415c-0.274-0.137-0.365-0.411-0.228-0.685 0.091-0.183 0.228-0.228 0.411-0.274 0.091 0 0.183 0 0.274 0.046 0.822 0.411 1.415 1.141 1.689 2.009s0.183 1.826-0.228 2.648c-0.411 0.822-1.141 1.415-2.009 1.689-0.274 0.091-0.548-0.091-0.639-0.32-0.091-0.274 0.091-0.548 0.32-0.639z"></path>
<path fill="#badff1" style="fill: var(--color5, #badff1)" d="M16.479 7.441c-0.548 1.324-1.643 2.282-2.922 2.739-0.457 0.183-0.913 0.274-1.415 0.274-0.365 0-0.685 0.046-1.050 0-1.872-0.183-3.424-1.369-4.2-3.013-0.228-0.457-0.365-0.913-0.411-1.415 0 0 0-0.046 0-0.046-0.411-2.785 1.689-5.569 4.474-5.934 3.971-0.502 7.213 3.378 5.524 7.395z"></path>
<path fill="#9bd1f0" style="fill: var(--color6, #9bd1f0)" d="M7.395 23.098v6.847c0 1.141-0.867 2.054-1.872 2.054s-1.872-0.913-1.872-2.054v-6.847c0-1.141 0.867-2.054 1.872-2.054s1.872 0.913 1.872 2.054z"></path>
<path fill="#9bd1f0" style="fill: var(--color6, #9bd1f0)" d="M15.612 19.264l-4.519-4.565c-0.685-0.776-0.685-1.963 0.091-2.648s1.963-0.685 2.648 0.091l4.519 4.565c0.685 0.776 0.685 1.963-0.091 2.648-0.73 0.685-1.917 0.685-2.648-0.091z"></path>
<path fill="#9bd1f0" style="fill: var(--color6, #9bd1f0)" d="M12.873 11.64l-3.971 9.678c-0.776 1.917-2.648 3.058-4.565 3.058-0.639 0-1.233-0.091-1.826-0.365-2.054-0.822-3.058-3.195-2.237-5.204l3.15-7.715c0.548-1.324 1.689-2.191 3.013-2.419 0.73 1.643 2.328 2.785 4.2 3.013 0.365 0.046 0.685 0.046 1.050 0 0.502-0.046 0.73 0.091 1.187-0.046z"></path>
<path fill="#fff" style="fill: var(--color1, #fff)" d="M12.736 7.989c0.639-0.046 1.278-0.32 1.689-0.822 0.457-0.502 0.639-1.096 0.593-1.78-0.046-0.639-0.365-1.233-0.867-1.689-0.228-0.183-0.228-0.502-0.046-0.73 0.137-0.137 0.274-0.183 0.457-0.137 0.091 0 0.183 0.046 0.274 0.137 0.685 0.593 1.141 1.461 1.187 2.374s-0.228 1.826-0.867 2.511c-0.593 0.685-1.461 1.096-2.374 1.187-0.274 0-0.502-0.183-0.548-0.457 0.046-0.32 0.274-0.548 0.502-0.593z"></path>
</symbol>
<symbol id="icon-age-2" viewBox="0 0 41 32">
<title>age-2</title>
<path fill="#badff1" style="fill: var(--color5, #badff1)" d="M40.358 12.273c-1.205 2.861-3.991 4.819-7.153 4.969-0.602 0-1.129 0.075-1.732 0-3.915-0.452-7.002-3.464-7.605-7.304 0 0 0-0.075 0-0.075-0.678-4.593 2.786-9.261 7.454-9.788 6.475-0.828 11.821 5.496 9.035 12.198z"></path>
<path fill="#9bd2f0" style="fill: var(--color7, #9bd2f0)" d="M30.268 18.372v0.828c0 3.614-2.936 6.626-6.626 6.626h-13.704c-3.614 0-6.626-2.936-6.626-6.626v0c0-4.442 3.689-8.132 8.132-8.132h11.144c0.678 3.915 3.84 6.927 7.68 7.304z"></path>
<path fill="#9bd2f0" style="fill: var(--color7, #9bd2f0)" d="M13.478 32h-10.391c-1.732 0-3.087-1.431-3.087-3.087v0c0-1.732 1.431-3.087 3.087-3.087h10.391c1.732 0 3.087 1.431 3.087 3.087v0c0 1.656-1.431 3.087-3.087 3.087z"></path>
<path fill="#9bd2f0" style="fill: var(--color7, #9bd2f0)" d="M34.56 31.021l-7.454-7.529c-1.129-1.28-1.129-3.238 0.151-4.367v0c1.28-1.129 3.238-1.129 4.367 0.151l7.454 7.529c1.129 1.28 1.129 3.238-0.151 4.367v0c-1.28 1.129-3.238 1.129-4.367-0.151z"></path>
<path fill="#fff" style="fill: var(--color1, #fff)" d="M34.485 4.442c-0.828-0.678-1.882-1.054-2.936-1.054-1.054 0.075-2.033 0.527-2.786 1.355-0.678 0.828-1.054 1.882-0.979 2.936 0 0.452-0.301 0.828-0.753 0.904-0.301 0-0.527-0.151-0.678-0.376-0.075-0.151-0.151-0.226-0.151-0.452-0.075-1.506 0.376-3.012 1.431-4.141 0.979-1.129 2.409-1.807 3.915-1.958s3.012 0.452 4.141 1.431c0.301 0.301 0.376 0.828 0.075 1.205-0.376 0.452-0.904 0.452-1.28 0.151z"></path>
</symbol>
<symbol id="icon-age-1" viewBox="0 0 28 32">
<title>age-1</title>
<path fill="#72c0e6" style="fill: var(--color8, #72c0e6)" d="M25.047 9.645c-0.523 0.822-1.346 1.421-2.243 1.794-0.748-0.673-1.57-1.346-2.393-1.944 0.972-0.15 1.794-0.598 2.243-1.346 0.449-0.673 0.598-1.495 0.374-2.318-0.224-1.047-0.972-2.019-1.944-2.692-1.869-1.196-4.187-0.897-5.234 0.673-0.449 0.673-0.598 1.495-0.374 2.318 0 0.075 0.075 0.224 0.075 0.299-0.972-0.523-1.869-0.972-2.766-1.421-0.075-1.047 0.15-1.944 0.748-2.766 0.897-1.495 2.542-2.243 4.411-2.243 1.421 0 2.916 0.449 4.262 1.346 1.794 1.121 2.991 2.841 3.439 4.636 0.299 1.346 0.075 2.617-0.598 3.664z"></path>
<path fill="#9bd1f0" style="fill: var(--color6, #9bd1f0)" d="M27.29 22.505c-1.495 2.243-6.729 1.72-12.486-1.047 0.224-0.374 0.449-0.748 0.748-1.047l0.299-0.374c0.748-0.897 1.121-2.093 0.972-3.29s-0.897-2.243-1.869-2.916l-1.121-0.748c-0.972-0.598-2.243-0.822-3.439-0.523-1.121 0.299-2.093 1.121-2.617 2.243l-0.15 0.299c-0.224 0.449-0.449 0.822-0.748 1.196-3.439-2.916-5.832-6.056-6.355-8.449-0.224-0.897-0.15-1.72 0.299-2.318 0.598-0.972 1.944-1.421 3.664-1.421 3.29 0 8.224 1.72 13.009 4.71 5.383 3.439 9.495 8 10.168 11.29 0.15 0.972 0 1.794-0.374 2.393z"></path>
<path fill="#badff1" style="fill: var(--color5, #badff1)" d="M15.626 16.897c-0.15-0.897-0.598-1.645-1.346-2.093l-1.121-0.748c-0.523-0.299-1.047-0.523-1.645-0.523-0.299 0-0.523 0-0.822 0.15-0.822 0.224-1.495 0.822-1.869 1.645l-0.224 0.374c-0.822 1.72-2.318 3.065-4.262 3.738-1.57 0.523-2.841 1.645-3.589 3.14-1.421 2.692-0.748 6.056 1.645 7.925 1.495 1.196 3.29 1.72 5.159 1.421 1.794-0.299 3.439-1.346 4.411-2.916 0.822-1.271 1.121-2.617 1.047-4.112-0.224-1.944 0.374-3.813 1.57-5.308l0.299-0.374c0.598-0.598 0.822-1.421 0.748-2.318zM5.832 22.056c-0.897 0.224-1.72 0.748-2.243 1.495s-0.673 1.72-0.523 2.617c0.224 0.897 0.748 1.72 1.57 2.243 0.374 0.224 0.449 0.673 0.224 0.972-0.15 0.224-0.374 0.299-0.598 0.299-0.15 0-0.224 0-0.374-0.15-1.122-0.748-1.869-1.794-2.168-3.14-0.299-1.271 0-2.617 0.673-3.738 0.748-1.122 1.869-1.869 3.14-2.168 0.374-0.075 0.748 0.15 0.897 0.523 0 0.598-0.224 0.972-0.598 1.047z"></path>
</symbol>
</defs>
</svg>
